<!DOCTYPE svg PUBLIC "-//W3C//DTD SVG 1.1//EN" "http://www.w3.org/Graphics/SVG/1.1/DTD/svg11.dtd">
<!-- Uploaded to: SVG Repo, www.svgrepo.com, Transformed by: SVG Repo Mixer Tools -->
<svg width="800px" height="800px" viewBox="0 0 16 16" xmlns:dc="http://purl.org/dc/elements/1.1/" xmlns:cc="http://creativecommons.org/ns#" xmlns:rdf="http://www.w3.org/1999/02/22-rdf-syntax-ns#" xmlns="http://www.w3.org/2000/svg" version="1.1" id="svg3049" fill="#FF6600">
<g id="SVGRepo_bgCarrier" stroke-width="0"/>
<g id="SVGRepo_tracerCarrier" stroke-linecap="round" stroke-linejoin="round"/>
<g id="SVGRepo_iconCarrier"> <metadata id="metadata3054"> <rdf:rdf> <cc:work> <dc:format>image/svg+xml</dc:format> <dc:type rdf:resource="http://purl.org/dc/dcmitype/StillImage"/> <dc:title/> <dc:date>2019</dc:date> <dc:creator> <cc:agent> <dc:title>Timothée Giet</dc:title> </cc:agent> </dc:creator> <cc:license rdf:resource="http://creativecommons.org/licenses/by-sa/4.0/"/> </cc:work> <cc:license rdf:about="http://creativecommons.org/licenses/by-sa/4.0/"> <cc:permits rdf:resource="http://creativecommons.org/ns#Reproduction"/> <cc:permits rdf:resource="http://creativecommons.org/ns#Distribution"/> <cc:requires rdf:resource="http://creativecommons.org/ns#Notice"/> <cc:requires rdf:resource="http://creativecommons.org/ns#Attribution"/> <cc:permits rdf:resource="http://creativecommons.org/ns#DerivativeWorks"/> <cc:requires rdf:resource="http://creativecommons.org/ns#ShareAlike"/> </cc:license> </rdf:rdf> </metadata> <g transform="translate(-421.714 -531.79)" id="layer1"> <path id="path866" d="M429.714 536.79a4 4 0 0 0-4 4 4 4 0 0 0 4 4 4 4 0 0 0 4-4 4 4 0 0 0-4-4zm0 1a3 3 0 0 1 3 3 3 3 0 0 1-3 3 3 3 0 0 1-3-3 3 3 0 0 1 3-3z" style="opacity:1;vector-effect:none;fill:#FF6600;fill-opacity:1;stroke:none;stroke-width:5;stroke-linecap:butt;stroke-linejoin:miter;stroke-miterlimit:4;stroke-dasharray:none;stroke-dashoffset:0;stroke-opacity:1"/> <rect y="545.79071" x="421.71429" height="1" width="16" id="rect871" style="opacity:1;vector-effect:none;fill:#FF6600;fill-opacity:1;stroke:none;stroke-width:5;stroke-linecap:butt;stroke-linejoin:miter;stroke-miterlimit:4;stroke-dasharray:none;stroke-dashoffset:0;stroke-opacity:1"/> <rect y="535.79071" x="421.71429" height="11" width="1" id="rect873" style="opacity:1;vector-effect:none;fill:#FF6600;fill-opacity:1;stroke:none;stroke-width:5;stroke-linecap:butt;stroke-linejoin:miter;stroke-miterlimit:4;stroke-dasharray:none;stroke-dashoffset:0;stroke-opacity:1"/> <rect y="535.79071" x="421.71429" height="1.0000296" width="3.9999955" id="rect875" style="opacity:1;vector-effect:none;fill:#FF6600;fill-opacity:1;stroke:none;stroke-width:5;stroke-linecap:butt;stroke-linejoin:miter;stroke-miterlimit:4;stroke-dasharray:none;stroke-dashoffset:0;stroke-opacity:1"/> <rect y="535.79071" x="436.71429" height="11.00003" width="1" id="rect877" style="opacity:1;vector-effect:none;fill:#FF6600;fill-opacity:1;stroke:none;stroke-width:4.7871418;stroke-linecap:butt;stroke-linejoin:miter;stroke-miterlimit:4;stroke-dasharray:none;stroke-dashoffset:0;stroke-opacity:1"/> <rect y="533.79071" x="434.71429" height="1" width="3.0000041" id="rect879" style="opacity:1;vector-effect:none;fill:#FF6600;fill-opacity:1;stroke:none;stroke-width:5;stroke-linecap:butt;stroke-linejoin:miter;stroke-miterlimit:4;stroke-dasharray:none;stroke-dashoffset:0;stroke-opacity:1"/> <path id="path883" transform="translate(421.714 531.79)" d="M8 1a5 5 0 0 0-4.895 4h1.028A4 4 0 0 1 8 2a4 4 0 0 1 3.87 3h1.028A5 5 0 0 0 8 1z" style="opacity:1;vector-effect:none;fill:#FF6600;fill-opacity:1;stroke:none;stroke-width:5;stroke-linecap:butt;stroke-linejoin:miter;stroke-miterlimit:4;stroke-dasharray:none;stroke-dashoffset:0;stroke-opacity:1"/> <rect y="535.79071" x="433.71429" height="1.0000296" width="3.9999955" id="rect875-3" style="opacity:1;vector-effect:none;fill:#FF6600;fill-opacity:1;stroke:none;stroke-width:5;stroke-linecap:butt;stroke-linejoin:miter;stroke-miterlimit:4;stroke-dasharray:none;stroke-dashoffset:0;stroke-opacity:1"/> </g> </g>
</svg>