<?xml version="1.0" standalone="no"?> <!DOCTYPE svg PUBLIC "-//W3C//DTD SVG 20010904//EN" "http://www.w3.org/TR/2001/REC-SVG-20010904/DTD/svg10.dtd"> <svg version="1.0" xmlns="http://www.w3.org/2000/svg" width="600.000000pt" height="554.000000pt" viewBox="0 0 600.000000 554.000000" preserveAspectRatio="xMidYMid meet"> <g transform="translate(0.000000,554.000000) scale(0.100000,-0.100000)" fill="#367e42" stroke="none"> <path d="M2770 5169 c0 -5 13 -9 29 -9 16 0 33 -6 39 -12 6 -8 13 -124 17 -280 8 -287 7 -298 -41 -298 -12 0 -25 -4 -28 -8 -6 -9 223 -7 232 3 3 3 -8 5 -24 5 -16 0 -34 4 -40 8 -15 9 -24 161 -25 403 l0 197 -80 0 c-43 1 -79 -3 -79 -9z m119 -16 c-1 -5 -1 -15 0 -23 1 -12 3 -12 9 -2 6 8 9 2 9 -18 0 -16 -4 -30 -8 -30 -4 0 -7 -18 -6 -39 0 -22 4 -38 8 -35 9 5 5 -72 -5 -104 -5 -13 -3 -22 3 -22 6 0 11 -15 10 -32 0 -28 -2 -30 -9 -13 -7 16 -9 14 -9 -15 0 -19 3 -30 7 -23 4 6 8 -32 9 -84 2 -53 5 -104 8 -114 4 -12 1 -17 -12 -15 -20 3 -28 21 -14 31 6 3 11 13 11 21 0 8 -3 13 -7 11 -5 -3 -9 79 -11 181 -2 103 -4 220 -6 260 -2 39 1 72 6 72 4 0 7 -3 7 -7z"/> <path d="M2070 5044 c-21 -24 -1 -69 30 -69 20 0 26 6 28 26 3 25 -19 59 -37 59 -5 0 -14 -7 -21 -16z m27 -36 c-3 -8 -6 -5 -6 6 -1 11 2 17 5 13 3 -3 4 -12 1 -19z"/> <path d="M3129 4974 c-57 -32 -84 -77 -99 -164 -19 -116 13 -203 91 -248 83 -48 219 -16 219 51 0 15 -4 27 -10 27 -5 0 -10 -6 -10 -14 0 -30 -44 -67 -85 -72 -94 -13 -128 29 -132 160 -5 169 35 266 111 266 47 0 73 -32 81 -101 11 -93 9 -95 -87 -88 -46 3 -85 5 -87 3 -12 -10 17 -15 134 -21 l128 -6 -7 57 c-10 92 -41 136 -113 162 -55 19 -82 17 -134 -12z m-27 -77 c-5 -7 -11 -19 -14 -27 -3 -10 -6 -8 -10 7 -4 14 -2 22 6 20 6 -1 10 4 8 11 -1 8 2 11 8 7 7 -4 7 -11 2 -18z m242 -48 c1 -24 -4 -44 -11 -46 -8 -3 -11 13 -10 51 1 65 20 60 21 -5z m-264 -49 c-5 -17 -6 -42 -4 -57 3 -14 2 -40 -2 -57 -15 -69 -25 40 -16 174 l2 25 14 -27 c10 -20 12 -37 6 -58z"/> <path d="M3331 4834 c0 -11 3 -14 6 -6 3 7 2 16 -1 19 -3 4 -6 -2 -5 -13z"/> <path d="M3060 4830 c0 -5 5 -10 11 -10 5 0 7 5 4 10 -3 6 -8 10 -11 10 -2 0 -4 -4 -4 -10z"/> <path d="M1847 4983 c-25 -24 9 -87 41 -76 26 10 31 23 20 54 -10 28 -44 40 -61 22z"/> <path d="M2575 4983 c-55 -10 -70 -17 -101 -48 -41 -43 -58 -102 -51 -180 8 -83 22 -126 55 -163 74 -82 215 -82 275 0 16 22 18 32 10 50 -11 22 -11 22 -18 3 -18 -53 -27 -67 -57 -85 -41 -25 -74 -25 -115 0 -26 15 -36 33 -53 87 -24 76 -30 228 -11 276 20 50 111 61 139 17 11 -18 44 -141 39 -146 -1 -1 -40 -8 -87 -14 -47 -6 -87 -14 -89 -16 -8 -8 74 -4 139 7 36 6 78 11 93 11 27 1 28 3 22 37 -10 55 -43 117 -73 137 -29 19 -85 32 -117 27z m148 -117 c13 -38 13 -45 1 -50 -8 -3 -14 0 -14 7 -1 7 -5 31 -9 54 -10 54 2 47 22 -11z m-256 -51 c-3 -20 -2 -35 4 -35 6 0 7 -23 4 -56 -3 -36 -2 -53 5 -49 6 4 10 -5 10 -19 0 -14 -4 -26 -10 -26 -5 0 -10 1 -10 3 -1 1 -3 20 -6 42 -3 22 -9 53 -15 69 -6 19 -5 43 1 67 13 49 25 51 17 4z m43 -205 c0 -5 -2 -10 -4 -10 -3 0 -8 5 -11 10 -3 6 -1 10 4 10 6 0 11 -4 11 -10z"/> <path d="M3946 4913 c-28 -35 -30 -35 -82 -29 -34 4 -54 2 -54 -4 0 -5 14 -10 30 -10 36 0 36 -6 11 -86 -82 -260 -88 -298 -55 -335 26 -29 45 -38 105 -49 29 -6 90 -26 136 -46 82 -35 126 -42 64 -9 -18 9 -31 23 -31 34 0 24 88 238 112 274 11 15 15 27 9 27 -5 0 -4 12 5 28 7 15 14 32 14 37 0 9 -108 65 -124 65 -16 0 -3 -18 19 -28 14 -6 25 -18 25 -27 0 -8 -18 -59 -41 -112 -22 -54 -52 -126 -66 -161 -14 -34 -33 -67 -43 -72 -21 -11 -119 13 -131 32 -13 20 -11 49 10 114 11 32 34 106 51 164 17 58 40 131 51 164 11 32 18 60 17 62 -2 2 -17 -13 -32 -33z m-29 -103 c-6 -14 -15 -30 -20 -37 -5 -7 -10 -22 -12 -35 -3 -29 -42 -164 -50 -177 -3 -6 -6 -26 -7 -45 -1 -35 -22 -56 -31 -31 -8 19 3 56 15 49 5 -3 6 6 2 22 -5 21 -4 25 6 19 9 -5 11 -4 6 4 -4 6 -2 19 6 28 7 10 8 14 1 10 -7 -4 -5 11 5 42 10 27 20 47 24 44 5 -2 7 4 5 14 -1 10 7 46 17 79 15 48 22 59 31 51 9 -9 10 -18 2 -37z m258 -78 c-2 -3 1 -12 8 -20 9 -13 9 -14 0 -8 -12 6 -18 -5 -14 -26 0 -5 -3 -8 -9 -8 -5 0 -9 -6 -7 -12 1 -7 -4 -12 -11 -10 -10 2 -11 -4 -7 -19 5 -15 4 -19 -5 -14 -9 5 -10 1 -5 -15 5 -14 3 -20 -3 -16 -6 3 -13 -7 -17 -24 -4 -16 -11 -32 -16 -35 -5 -4 -9 -15 -9 -26 0 -10 -4 -19 -8 -19 -5 0 -9 -14 -9 -31 0 -17 -5 -34 -12 -38 -7 -5 -12 -11 -12 -15 1 -8 -7 -9 -22 -2 -9 5 -9 7 1 12 6 3 12 12 12 19 0 7 8 16 17 19 14 6 15 9 4 16 -12 7 -12 11 2 24 9 9 14 23 11 31 -4 8 -1 15 5 15 6 0 10 3 10 8 -4 21 2 32 13 26 8 -5 9 -2 5 9 -3 10 -3 17 2 17 10 0 53 139 46 150 -3 5 4 6 15 3 12 -3 18 -8 15 -11z"/> <path d="M3800 4500 c0 -5 5 -10 11 -10 5 0 7 5 4 10 -3 6 -8 10 -11 10 -2 0 -4 -4 -4 -10z"/> <path d="M3567 4931 c-83 -19 -138 -118 -140 -251 -1 -90 16 -128 74 -167 51 -34 132 -42 177 -19 37 19 59 53 44 68 -7 7 -15 1 -26 -19 -38 -75 -163 -63 -196 18 -11 26 -11 47 -2 114 25 171 64 245 129 245 61 0 75 -14 72 -76 -2 -29 0 -56 3 -59 11 -11 59 8 69 27 37 68 -93 145 -204 119z m173 -65 c0 -3 -4 -8 -10 -11 -5 -3 -10 -1 -10 4 0 6 5 11 10 11 6 0 10 -2 10 -4z m-233 -36 c-1 -14 -5 -16 -13 -9 -7 6 -10 17 -7 25 7 19 22 8 20 -16z m239 -6 c-5 -14 -9 -15 -19 -5 -9 9 -9 14 3 21 18 11 24 6 16 -16z m-260 -56 c-3 -24 -9 -69 -12 -100 -4 -32 -10 -58 -15 -58 -5 0 -9 4 -9 9 0 5 -3 18 -6 28 -5 15 -4 16 5 3 9 -12 10 -7 5 23 -8 46 3 110 18 101 6 -4 8 1 3 15 -4 13 -2 21 5 21 8 0 10 -13 6 -42z"/> <path d="M1573 4900 c-35 -16 -63 -31 -63 -33 0 -2 17 -4 38 -3 l37 1 57 -115 c32 -63 58 -117 58 -120 0 -3 -16 12 -35 33 -29 32 -40 37 -77 37 -52 0 -100 -27 -129 -72 -55 -88 35 -320 139 -359 62 -24 158 7 181 58 14 30 14 73 1 73 -5 0 -10 -14 -10 -30 0 -36 -35 -76 -74 -86 -38 -9 -85 31 -125 105 -69 131 -89 233 -51 271 77 77 194 -16 242 -193 6 -26 18 -47 25 -47 7 0 13 -4 13 -9 0 -5 7 -24 15 -44 l14 -35 41 20 c22 11 55 24 73 29 17 4 100 28 182 53 83 24 167 47 188 51 48 8 48 23 0 21 -42 -1 -56 17 -72 96 -11 51 -72 292 -76 296 -2 3 -83 -16 -125 -29 -22 -7 -21 -8 12 -8 25 -1 40 -7 47 -19 17 -32 91 -340 85 -355 -6 -17 -47 -37 -74 -37 -26 0 -36 24 -101 223 -49 152 -56 167 -74 162 -11 -3 -41 -11 -67 -18 -47 -13 -84 -35 -39 -24 47 12 66 -6 90 -85 13 -40 36 -112 52 -159 42 -126 39 -141 -33 -154 -48 -9 -56 0 -129 166 -33 74 -70 157 -83 184 -12 28 -36 80 -51 118 -16 37 -32 67 -35 66 -3 0 -33 -13 -67 -29z m67 -26 c0 -8 6 -14 13 -14 8 0 7 -4 -3 -10 -8 -5 -10 -10 -4 -10 20 0 65 -95 52 -108 -8 -8 -7 -13 5 -18 9 -3 17 -10 17 -16 0 -5 -4 -6 -10 -3 -5 3 -10 1 -10 -5 0 -7 8 -9 20 -5 11 4 20 2 20 -4 0 -6 -4 -11 -10 -11 -5 0 -10 -5 -10 -12 0 -6 3 -8 7 -4 11 10 65 -114 60 -136 -4 -15 -3 -17 8 -8 11 9 16 3 26 -32 7 -24 19 -53 27 -65 8 -13 10 -23 6 -23 -5 0 -2 -5 6 -10 12 -8 10 -10 -9 -10 -17 0 -22 4 -17 16 3 8 2 12 -4 9 -9 -6 -14 8 -11 28 0 4 -4 7 -10 7 -8 0 -10 12 -6 34 4 27 2 33 -11 32 -12 -1 -18 8 -20 32 -2 17 -7 32 -13 32 -5 0 -9 12 -9 28 0 18 -3 23 -9 14 -6 -11 -10 -10 -16 5 -5 10 -7 22 -6 26 1 4 -5 18 -14 30 -8 12 -15 29 -15 39 0 10 -4 18 -10 18 -5 0 -6 7 -3 17 5 12 3 14 -7 8 -9 -5 -11 -4 -6 4 4 6 1 22 -7 34 -8 12 -20 39 -27 61 -9 28 -15 35 -21 25 -10 -16 -12 -8 -3 15 7 18 34 10 34 -10z m509 -46 c-11 -21 -11 -22 4 -10 13 11 15 10 10 -7 -3 -12 0 -28 7 -36 7 -8 10 -22 6 -30 -3 -9 1 -27 10 -40 9 -13 13 -29 9 -35 -3 -5 -2 -10 4 -10 5 0 13 -25 16 -55 4 -30 11 -58 16 -61 15 -9 10 -54 -6 -54 -14 0 -20 22 -16 63 1 9 -2 17 -7 17 -9 0 -13 14 -31 110 -5 25 -16 65 -25 89 -9 24 -14 46 -11 49 3 3 0 11 -6 19 -9 10 -7 13 10 13 19 0 20 -2 10 -22z m-205 -34 c3 -9 6 -24 6 -35 0 -10 5 -19 11 -19 6 0 9 -9 6 -20 -3 -11 -2 -18 3 -15 9 5 20 -28 20 -62 0 -12 5 -23 12 -25 7 -3 12 -21 12 -41 0 -19 3 -34 7 -31 4 2 7 -2 6 -9 -1 -31 4 -48 12 -43 5 4 4 -10 -2 -29 -12 -41 -15 -41 -20 5 -2 19 -10 49 -17 65 -6 17 -12 40 -12 52 0 13 -5 20 -10 17 -6 -4 -8 2 -4 14 4 12 -1 34 -13 56 -12 20 -18 43 -14 52 4 12 3 15 -6 10 -8 -6 -10 -1 -6 17 4 14 2 28 -4 31 -13 9 -15 26 -2 26 5 0 12 -7 15 -16z m-477 -246 c-3 -8 -6 -5 -6 6 -1 11 2 17 5 13 3 -3 4 -12 1 -19z m24 -32 c5 3 9 2 8 -3 -4 -18 24 -102 32 -97 5 3 6 -2 3 -10 -3 -9 -1 -16 5 -16 6 0 8 -7 4 -17 -5 -12 -2 -15 10 -10 12 4 14 2 10 -10 -5 -12 -3 -14 8 -8 11 7 11 5 -1 -10 -14 -17 -13 -18 5 -11 16 6 18 5 7 -6 -11 -11 -17 -9 -33 12 -10 14 -22 35 -25 47 -3 13 -10 21 -15 18 -10 -7 -32 72 -25 91 3 8 -1 14 -9 14 -9 0 -12 6 -8 17 4 11 8 13 11 5 2 -7 8 -10 13 -6z m566 -71 c-15 -16 -22 -11 -13 10 3 9 10 13 16 10 6 -4 5 -11 -3 -20z"/> <path d="M1670 4780 c6 -11 13 -20 16 -20 2 0 0 9 -6 20 -6 11 -13 20 -16 20 -2 0 0 -9 6 -20z"/> <path d="M2201 4594 c0 -11 3 -14 6 -6 3 7 2 16 -1 19 -3 4 -6 -2 -5 -13z"/> <path d="M3960 4841 c0 -9 68 -31 95 -31 27 0 16 6 -42 23 -29 9 -53 12 -53 8z"/> <path d="M4228 4719 c-10 -5 -18 -14 -18 -20 0 -5 9 -4 19 3 15 9 25 9 47 0 24 -12 26 -16 21 -57 l-5 -45 34 0 c25 0 38 7 50 26 16 24 16 27 -3 52 -35 47 -102 66 -145 41z m132 -60 c0 -16 -13 -39 -22 -39 -5 0 -7 4 -4 9 4 5 3 11 -1 14 -5 2 -1 2 7 0 10 -2 9 1 -4 11 -18 14 -18 15 3 13 11 -1 21 -4 21 -8z"/> <path d="M4464 4585 c-37 -17 -96 -80 -123 -134 -72 -141 -25 -262 117 -301 58 -15 109 1 158 48 50 49 96 140 102 201 12 130 -135 238 -254 186z m135 -21 c53 -21 75 -55 68 -107 -7 -55 -71 -175 -125 -237 -38 -44 -48 -50 -83 -50 -57 0 -104 44 -103 97 2 77 104 255 168 294 37 23 28 22 75 3z m-119 -4 c0 -17 -60 -71 -71 -64 -7 4 -7 -2 1 -16 10 -18 9 -21 -1 -15 -9 6 -11 3 -6 -8 3 -10 2 -17 -3 -17 -6 0 -10 -7 -10 -16 0 -14 -3 -14 -15 -4 -13 11 -14 10 -10 -3 4 -8 2 -18 -4 -22 -6 -3 -11 1 -11 11 0 21 60 124 73 124 4 0 5 -4 2 -10 -3 -5 -1 -10 4 -10 6 0 11 4 11 8 0 7 32 52 38 52 1 0 2 -4 2 -10z m211 -143 c-10 -9 -11 -8 -5 6 3 10 9 15 12 12 3 -3 0 -11 -7 -18z m1 -36 c8 12 9 11 5 -1 -2 -8 -10 -14 -17 -12 -7 1 -9 -4 -5 -17 6 -20 -13 -71 -26 -71 -19 0 -18 22 3 69 14 31 24 45 27 35 2 -14 5 -15 13 -3z m-342 -11 c7 -13 7 -26 2 -36 -8 -15 -10 -15 -15 0 -4 10 -3 15 3 11 13 -8 13 1 0 26 -6 10 -8 19 -6 19 3 0 10 -9 16 -20z m290 -101 c0 -6 -4 -7 -10 -4 -5 3 -7 0 -5 -7 6 -15 -39 -62 -70 -72 -14 -4 -12 0 8 15 15 11 27 27 27 35 0 8 4 14 9 14 5 0 11 9 14 21 5 20 27 18 27 -2z"/> <path d="M4655 4329 c-4 -6 -5 -12 -2 -15 2 -3 7 2 10 11 7 17 1 20 -8 4z"/> <path d="M1269 4552 c-19 -15 -46 -34 -59 -43 l-24 -16 27 -35 c17 -22 36 -35 50 -35 42 -1 47 -3 47 -22 0 -11 5 -21 11 -23 5 -2 7 -11 4 -21 -6 -15 -10 -14 -29 10 -11 15 -20 31 -18 36 1 5 -2 6 -8 2 -5 -3 -10 -1 -10 5 0 6 -4 9 -9 6 -5 -3 -20 3 -35 15 -62 49 -150 22 -195 -60 -23 -41 -23 -47 -11 -95 22 -88 81 -180 143 -221 68 -44 147 -35 198 23 29 33 31 39 25 91 l-7 55 52 -84 c28 -47 60 -97 70 -112 27 -37 24 -53 -18 -87 -54 -45 -22 -38 40 8 29 21 74 51 101 67 27 15 44 30 38 32 -6 2 -20 -1 -31 -7 -11 -6 -26 -8 -35 -5 -13 5 -264 383 -301 453 -15 30 -15 32 10 55 46 43 29 49 -26 8z m-22 -48 c-3 -4 3 -18 13 -32 22 -27 25 -42 11 -42 -15 0 -42 31 -36 41 4 5 1 9 -6 9 -8 0 -8 4 1 15 7 8 15 15 18 15 3 0 2 -3 -1 -6z m-36 -87 c18 -12 48 -42 66 -67 18 -25 37 -49 41 -55 22 -30 47 -105 47 -143 0 -36 -5 -48 -28 -68 -70 -60 -147 -7 -240 166 -52 97 -55 123 -19 160 38 37 85 40 133 7z m134 -78 c-4 -5 -1 -9 4 -9 6 0 11 -7 11 -16 0 -8 4 -12 10 -9 6 4 7 -1 3 -11 -4 -11 -3 -15 5 -10 6 3 14 1 18 -5 4 -8 3 -9 -4 -5 -8 5 -12 -1 -13 -16 l0 -23 -11 23 c-6 12 -14 22 -18 22 -5 0 -11 7 -14 16 -4 10 -2 13 7 9 6 -4 5 -1 -3 7 -16 14 -15 52 1 42 5 -3 7 -10 4 -15z m-285 -74 c5 3 11 -8 15 -25 4 -16 10 -30 13 -30 4 0 15 -18 25 -40 11 -26 22 -38 29 -34 8 5 9 2 5 -9 -4 -11 2 -22 16 -32 18 -13 19 -15 4 -15 -10 0 -20 7 -23 15 -4 8 -11 12 -17 8 -6 -3 -7 -1 -3 5 4 6 -2 17 -14 24 -11 7 -20 21 -20 31 0 10 -4 16 -9 12 -5 -3 -13 0 -17 6 -4 8 -3 9 4 5 19 -11 14 2 -8 24 -13 13 -20 32 -19 53 1 17 3 24 6 14 2 -9 8 -15 13 -12z m350 -33 c0 -9 5 -24 11 -32 9 -12 10 -10 5 9 -3 16 -2 21 5 14 9 -9 16 -30 18 -56 1 -5 6 -5 11 -2 10 6 14 -15 10 -45 -1 -12 1 -12 11 -3 9 9 18 3 40 -30 30 -43 37 -77 18 -77 -6 0 -9 7 -6 14 4 10 1 13 -7 10 -14 -5 -86 103 -87 133 0 11 -3 13 -6 5 -3 -8 -12 1 -24 22 -20 39 -25 71 -9 61 6 -3 10 -14 10 -23z m-206 -160 c2 -4 -5 -9 -17 -9 -17 -2 -19 0 -7 7 18 12 18 12 24 2z"/> <path d="M1515 4060 c-3 -5 -1 -10 4 -10 6 0 11 5 11 10 0 6 -2 10 -4 10 -3 0 -8 -4 -11 -10z"/> <path d="M4868 4400 c12 -12 22 -29 22 -39 0 -23 -191 -270 -224 -290 -23 -14 -27 -13 -44 2 -21 19 -32 22 -32 8 0 -5 17 -20 38 -32 20 -13 58 -43 85 -68 48 -45 79 -51 37 -6 -12 13 -20 30 -17 37 4 10 88 124 128 172 5 6 18 23 29 38 46 61 129 76 173 30 47 -49 38 -71 -106 -255 l-100 -128 23 -16 c13 -9 72 -66 131 -126 60 -61 111 -108 114 -105 3 3 -4 15 -15 28 -11 13 -20 32 -20 42 0 11 58 79 139 161 l139 141 -51 53 c-29 29 -53 48 -55 43 -2 -6 4 -17 12 -26 9 -8 16 -21 16 -28 0 -20 -253 -276 -273 -276 -19 0 -77 57 -77 76 0 10 74 122 89 134 15 12 90 118 101 142 28 60 -27 157 -100 179 -33 10 -43 9 -65 -5 -36 -23 -44 -12 -15 19 l24 25 -50 45 c-27 24 -55 44 -63 45 -10 0 -8 -6 7 -20z m67 -70 c8 -13 -40 -71 -50 -62 -5 4 -5 -1 -2 -11 4 -11 3 -16 -3 -12 -6 3 -10 0 -10 -7 -1 -7 -14 -28 -30 -47 -20 -23 -34 -32 -46 -27 -15 6 -15 4 -3 -10 11 -14 11 -18 -4 -29 -9 -6 -13 -16 -9 -20 4 -5 -1 -5 -10 -2 -12 4 -19 -1 -24 -16 -13 -40 -35 -66 -51 -60 -14 6 -14 7 0 18 9 7 14 15 10 18 -9 10 18 38 30 30 6 -4 8 0 4 11 -4 9 -3 14 2 11 5 -3 13 4 16 15 6 18 9 19 23 8 14 -11 14 -11 5 7 -9 15 -8 23 3 35 62 67 95 109 105 133 12 27 33 36 44 17z m172 -202 c-3 -8 -6 -5 -6 6 -1 11 2 17 5 13 3 -3 4 -12 1 -19z m-14 -35 c-3 -7 -10 -10 -16 -6 -6 4 -8 0 -4 -10 3 -9 2 -19 -3 -22 -6 -4 -10 -1 -10 6 0 7 -11 -9 -25 -35 -41 -77 -77 -119 -88 -104 -6 9 -7 8 -3 -5 3 -10 -1 -28 -10 -40 -12 -16 -15 -17 -11 -4 4 9 2 17 -3 17 -6 0 -10 -4 -10 -10 0 -5 -5 -10 -10 -10 -15 0 2 29 39 69 17 18 31 38 31 45 0 6 5 4 10 -4 5 -8 10 -10 11 -5 4 24 6 31 14 48 4 9 13 17 20 17 7 0 16 8 19 18 17 45 38 74 46 62 5 -7 6 -19 3 -27z m223 -102 c-9 -10 -13 -21 -9 -24 3 -4 1 -7 -6 -7 -7 0 -9 -5 -6 -10 4 -6 3 -9 -2 -8 -6 2 -83 -68 -83 -76 0 -1 -21 -24 -47 -51 -26 -27 -44 -43 -40 -35 5 8 0 4 -10 -9 -36 -49 -52 -66 -53 -53 0 6 5 12 11 12 5 0 7 5 4 10 -5 8 -11 7 -21 -1 -9 -7 -14 -8 -14 -1 0 6 15 20 34 31 19 12 37 28 40 37 3 8 10 12 16 9 6 -4 7 1 3 11 -5 13 -3 16 10 11 11 -4 14 -2 10 9 -4 10 0 12 13 7 13 -5 15 -3 9 7 -6 9 -4 11 5 5 10 -6 12 -4 7 9 -4 10 -3 15 3 11 6 -3 10 0 10 7 0 15 47 61 73 71 9 3 17 11 17 17 0 16 24 39 33 33 5 -3 1 -13 -7 -22z"/> <path d="M4901 4308 c-14 -23 -14 -23 8 -4 22 20 25 26 13 26 -4 0 -13 -10 -21 -22z"/> <path d="M4847 4233 c-4 -3 -7 -11 -7 -17 0 -6 5 -5 12 2 6 6 9 14 7 17 -3 3 -9 2 -12 -2z"/> <path d="M5218 3903 c7 -3 16 -2 19 1 4 3 -2 6 -13 5 -11 0 -14 -3 -6 -6z"/> <path d="M752 4187 c-72 -48 -98 -133 -64 -211 28 -62 77 -121 131 -156 88 -59 216 -29 262 61 25 51 23 112 -5 117 -15 3 -17 0 -11 -14 4 -11 10 -34 13 -52 4 -27 -2 -38 -36 -72 -44 -44 -73 -50 -126 -25 -31 15 -124 102 -115 108 7 5 102 89 152 135 54 49 54 52 -17 104 -51 36 -133 39 -184 5z m147 -7 c12 0 61 -48 61 -60 0 -17 -14 -12 -58 22 -42 32 -56 55 -26 44 9 -3 19 -6 23 -6z m-28 -42 c29 -24 54 -48 56 -54 2 -6 -28 -39 -67 -73 l-70 -63 -20 24 c-27 32 -60 104 -60 130 0 32 48 78 81 78 18 0 47 -15 80 -42z m-149 -158 c-2 -19 0 -21 13 -10 13 11 14 10 9 -5 -5 -12 -4 -16 4 -11 6 4 23 -12 41 -38 17 -24 47 -53 67 -65 20 -12 33 -25 30 -29 -4 -3 -12 0 -17 8 -8 11 -12 12 -16 2 -2 -6 -9 -9 -15 -6 -6 4 -5 10 3 15 11 7 10 9 -3 10 -10 1 -23 2 -30 3 -7 0 -15 12 -19 26 -4 14 -7 19 -8 11 -1 -8 -9 -4 -21 12 -12 15 -21 29 -20 32 0 3 -9 14 -20 25 -22 22 -27 54 -7 47 6 -2 11 -14 9 -27z"/> <path d="M750 3941 c0 -6 4 -13 10 -16 6 -3 7 1 4 9 -7 18 -14 21 -14 7z"/> <path d="M5403 4135 c-23 -19 -26 -27 -17 -42 17 -28 50 -28 69 0 31 48 -8 81 -52 42z"/> <path d="M376 4043 c-3 -10 -21 -36 -40 -57 l-34 -40 31 -55 c17 -31 77 -130 133 -221 56 -91 101 -166 99 -168 -3 -3 -97 21 -245 63 -25 7 -63 17 -85 24 -22 6 -70 19 -107 30 l-68 19 -30 -41 c-30 -40 -41 -72 -18 -49 20 20 31 15 104 -43 38 -31 123 -98 190 -149 158 -124 154 -118 125 -168 -34 -60 -19 -56 30 9 24 32 51 67 61 77 25 28 13 34 -15 8 -13 -12 -30 -22 -38 -22 -8 0 -93 61 -189 136 -96 75 -181 138 -187 141 -7 3 -13 8 -13 12 0 7 62 -9 448 -117 92 -26 102 -27 102 -12 0 10 -6 23 -14 29 -8 6 -20 26 -27 44 -7 17 -65 115 -129 217 -88 140 -116 193 -115 217 1 42 10 50 32 27 16 -16 16 -17 1 -11 -10 3 -20 1 -24 -6 -4 -7 -4 -9 1 -5 11 10 101 -38 119 -64 9 -12 16 -18 16 -13 0 6 4 5 8 -1 4 -6 26 -24 49 -41 23 -17 39 -33 36 -37 -3 -3 0 -6 7 -6 22 0 81 -50 74 -62 -5 -7 -2 -9 8 -5 9 3 23 -2 32 -12 16 -17 16 -19 0 -25 -22 -9 -32 2 -14 15 11 7 7 8 -12 3 -28 -6 -33 -1 -29 36 2 12 0 12 -7 2 -13 -19 -52 5 -44 26 4 10 1 13 -7 8 -7 -5 -18 0 -27 10 -9 11 -13 13 -9 4 4 -9 -1 -6 -12 5 -11 11 -28 25 -38 31 -11 6 -25 21 -31 33 -16 31 -34 49 -34 33 0 -7 5 -12 10 -12 6 0 10 -5 10 -10 0 -16 -48 22 -53 43 -4 12 -11 15 -23 10 -12 -4 -15 -3 -10 5 5 8 2 10 -8 6 -22 -9 -15 -16 92 -101 54 -42 136 -108 185 -146 89 -71 101 -92 71 -121 -11 -12 -12 -16 -2 -16 7 0 24 17 38 38 14 20 45 58 69 85 24 26 41 50 38 53 -3 4 -13 -1 -22 -10 -32 -31 -50 -36 -76 -19 -77 53 -378 295 -383 309 -3 8 1 25 9 37 17 25 19 37 6 37 -5 0 -12 -8 -15 -17z m374 -399 c0 -9 5 -12 12 -8 7 4 8 3 4 -4 -10 -16 -25 -15 -43 4 -14 13 -14 17 -3 24 17 11 30 4 30 -16z m-579 -64 c29 -12 58 -19 66 -16 8 3 12 2 9 -2 -4 -7 39 -19 127 -38 4 -1 8 -2 10 -3 1 -1 16 -4 33 -6 51 -7 84 -23 84 -42 0 -15 -2 -15 -16 3 -8 10 -13 13 -9 7 8 -16 5 -16 -50 2 -25 9 -51 13 -57 9 -7 -4 -8 -3 -4 4 4 7 0 13 -11 14 -10 0 -22 2 -28 3 -5 2 -20 3 -33 4 -13 0 -20 5 -17 11 3 5 0 7 -8 4 -8 -3 -18 -1 -22 5 -3 6 -21 11 -40 11 -19 0 -36 4 -40 10 -3 5 -13 6 -22 3 -10 -4 -14 -2 -10 4 4 7 -8 10 -32 8 -30 -2 -38 1 -34 11 7 20 44 17 104 -6z m385 -100 c17 0 19 -26 2 -36 -7 -4 -8 -3 -4 4 5 8 -1 12 -17 12 -15 0 -24 6 -24 15 0 10 6 14 14 10 8 -3 21 -5 29 -5z"/> <path d="M438 3493 c7 -3 16 -2 19 1 4 3 -2 6 -13 5 -11 0 -14 -3 -6 -6z"/> <path d="M5216 4033 c-6 -14 -5 -15 5 -6 7 7 10 15 7 18 -3 3 -9 -2 -12 -12z"/> <path d="M5585 3851 c-3 -5 -2 -12 3 -15 5 -3 9 1 9 9 0 17 -3 19 -12 6z"/> <path d="M5385 3838 c-80 -29 -190 -135 -201 -195 -13 -71 23 -161 81 -199 37 -24 98 -30 114 -10 19 23 9 29 -25 16 -38 -15 -69 -5 -105 31 -58 60 -48 110 40 197 72 70 148 121 194 129 31 5 40 1 68 -26 38 -38 34 -71 -11 -113 l-29 -27 21 -16 c32 -22 55 -19 74 10 14 22 15 31 4 71 -30 107 -130 166 -225 132z m17 -27 c-8 -4 -14 -12 -15 -17 -1 -5 -6 -10 -12 -10 -5 -1 -14 -2 -20 -3 -5 -1 -3 -6 5 -11 13 -9 13 -10 -1 -10 -8 0 -26 -11 -39 -25 -12 -13 -26 -22 -31 -20 -4 3 -10 -3 -14 -14 -3 -10 -17 -22 -31 -25 -19 -5 -24 -11 -19 -24 5 -13 4 -14 -6 -5 -10 10 -9 17 6 33 10 11 22 17 27 14 6 -4 8 2 4 14 -4 12 -2 23 5 28 9 5 10 2 6 -10 -4 -10 -3 -15 3 -11 6 3 10 11 10 17 0 13 47 58 61 58 6 0 17 7 25 15 9 8 23 15 32 15 13 0 14 -2 4 -9z m198 -142 c0 -6 -5 -7 -12 -3 -8 5 -9 2 -5 -9 3 -9 2 -19 -3 -22 -11 -7 -14 38 -4 48 9 8 24 -1 24 -14z"/> <path d="M5315 3759 c-11 -16 -1 -19 13 -3 7 8 8 14 3 14 -5 0 -13 -5 -16 -11z"/> <path d="M505 3820 c3 -5 8 -10 11 -10 2 0 4 5 4 10 0 6 -5 10 -11 10 -5 0 -7 -4 -4 -10z"/> <path d="M5620 3563 c-21 -11 -42 -33 -54 -56 -17 -35 -17 -47 -7 -107 16 -100 14 -126 -11 -151 -52 -49 -111 -40 -143 21 -24 46 -19 70 25 110 33 30 38 39 25 44 -30 11 -51 6 -73 -17 -28 -30 -28 -66 2 -125 50 -97 133 -129 206 -79 48 32 59 74 45 172 -14 96 -10 120 23 145 36 29 66 25 100 -14 36 -41 33 -63 -10 -106 -31 -31 -31 -44 1 -53 33 -8 61 20 61 60 0 109 -108 197 -190 156z m9 -41 c-7 -11 -19 -18 -26 -15 -7 3 -13 1 -13 -5 0 -6 5 -12 10 -14 7 -2 5 -11 -4 -23 -13 -18 -14 -17 -12 15 1 24 7 36 19 38 9 2 14 8 11 14 -4 7 -2 8 4 4 7 -4 12 -2 12 5 0 7 3 10 6 7 3 -3 0 -15 -7 -26z m-20 -159 c15 -58 16 -71 4 -81 -7 -7 -11 -18 -7 -23 7 -13 -15 -41 -27 -33 -5 3 -9 0 -9 -6 0 -6 -5 -8 -10 -5 -8 5 -7 11 1 21 10 12 14 12 20 2 10 -16 11 -12 10 77 0 39 -3 84 -7 100 -14 60 8 15 25 -52z"/> <path d="M5601 3304 c0 -11 3 -14 6 -6 3 7 2 16 -1 19 -3 4 -6 -2 -5 -13z"/> <path d="M3751 3558 c-59 -16 -124 -65 -194 -146 -15 -17 -37 -32 -48 -32 -28 0 -48 -27 -49 -66 0 -17 -9 -43 -21 -58 -21 -27 -59 -123 -59 -151 0 -13 -56 -15 -475 -15 -450 0 -478 -1 -514 -19 -43 -22 -109 -93 -117 -127 -6 -23 -16 -27 -99 -39 -22 -3 -67 -10 -100 -15 -33 -6 -118 -19 -190 -30 -209 -33 -210 -34 -207 -145 3 -71 49 -424 62 -476 11 -40 44 -77 55 -60 3 6 2 11 -3 11 -6 0 -12 7 -16 15 -4 12 -2 13 14 2 11 -6 20 -19 20 -27 0 -12 2 -12 9 -1 5 8 11 9 15 3 3 -6 -2 -13 -12 -16 -20 -7 -25 -46 -5 -46 25 0 20 -15 -5 -17 -15 -1 -42 -4 -60 -6 -18 -3 -35 0 -39 6 -4 6 -1 7 7 2 10 -6 12 -4 7 8 -3 10 -2 17 4 17 11 0 39 25 39 34 0 3 -13 6 -29 6 -28 0 -41 -14 -41 -45 0 -8 -19 -32 -42 -54 -36 -34 -50 -41 -84 -41 -25 0 -51 -7 -64 -18 -22 -18 -22 -20 -21 -292 1 -226 4 -278 16 -297 18 -27 32 -27 473 -16 l263 6 17 29 c17 29 34 38 30 16 -2 -7 -10 -16 -18 -20 -12 -5 -11 -7 3 -7 17 -1 17 -2 1 -18 -26 -27 -99 -31 -505 -32 l-376 -1 -21 -23 c-22 -23 -22 -29 -22 -339 l0 -317 29 -20 c28 -20 42 -21 358 -21 l328 0 118 42 c100 35 118 44 114 60 -3 10 -1 15 5 12 5 -3 8 -15 5 -25 -3 -11 5 -29 22 -45 62 -63 16 -59 701 -62 344 -2 640 0 658 3 41 8 106 65 135 119 21 40 22 50 22 418 0 246 4 378 10 378 6 0 30 -9 54 -20 24 -11 50 -20 57 -20 8 0 17 -14 21 -31 4 -19 14 -34 25 -37 18 -4 19 -19 16 -372 l-3 -368 29 -27 29 -27 168 4 c157 3 170 4 190 25 21 21 22 25 20 373 l-2 352 27 40 c15 21 32 37 38 35 6 -3 19 0 29 5 14 7 17 23 17 96 0 97 -4 108 -40 113 -15 3 -26 12 -28 24 -2 11 -17 32 -33 47 -16 15 -29 34 -29 42 0 29 -38 36 -198 36 -141 0 -161 -2 -175 -18 -10 -10 -17 -26 -17 -35 0 -9 -10 -22 -22 -28 -30 -16 -38 -28 -38 -64 0 -27 -5 -32 -46 -47 -36 -13 -52 -14 -70 -6 -24 11 -24 13 -24 159 l0 148 58 83 c123 175 186 258 198 258 7 0 35 23 63 50 28 28 55 50 61 50 41 0 160 100 160 134 0 19 -119 125 -149 133 -35 9 -106 -69 -115 -126 -3 -23 -10 -41 -15 -41 -6 0 -13 -10 -16 -22 -4 -13 -20 -40 -36 -60 -16 -20 -29 -41 -29 -47 0 -5 -6 -16 -13 -23 -7 -7 -43 -53 -80 -101 -72 -93 -91 -126 -66 -113 8 4 6 1 -4 -7 -10 -9 -19 -21 -21 -29 -1 -7 -5 -18 -9 -24 -4 -7 3 -24 14 -38 13 -17 16 -26 7 -24 -7 2 -12 -2 -11 -9 1 -6 -4 -14 -12 -17 -10 -4 -15 1 -15 14 0 11 4 20 9 20 6 0 6 12 -1 30 -7 22 -7 34 1 44 6 7 8 16 4 19 -3 4 0 7 7 7 10 0 12 77 8 403 -5 448 -5 446 -75 508 -48 41 -75 51 -165 59 -43 3 -81 9 -84 13 -13 12 19 69 67 119 35 35 49 58 49 77 0 22 16 44 70 95 39 36 71 61 71 54 1 -7 1 -29 0 -49 -3 -40 9 -54 54 -63 27 -6 33 -3 49 25 28 48 28 142 -1 170 -26 26 -86 38 -132 27z m99 -53 c24 -28 11 -125 -16 -125 -14 0 -13 20 2 68 12 40 -29 53 -89 29 -33 -15 -147 -114 -147 -129 0 -5 4 -7 9 -4 5 3 12 -1 15 -10 4 -10 2 -13 -6 -8 -8 5 -9 2 -5 -9 3 -9 1 -19 -5 -23 -7 -4 -8 -3 -4 4 4 7 2 12 -4 12 -6 0 -8 5 -5 11 4 6 -1 16 -10 23 -16 11 -12 18 39 73 31 34 75 71 99 82 50 25 109 27 127 6z m-295 -135 c-10 -11 -21 -18 -23 -15 -3 3 3 12 14 20 27 20 30 18 9 -5z m2 -52 c37 -26 43 -48 14 -48 -27 0 -76 44 -67 58 10 16 15 15 53 -10z m-57 -38 c0 -5 -5 -10 -11 -10 -5 0 -7 5 -4 10 3 6 8 10 11 10 2 0 4 -4 4 -10z m16 -35 c4 -9 -3 -37 -15 -64 -11 -26 -23 -67 -27 -90 -4 -23 -13 -49 -21 -57 -45 -45 -42 60 5 160 31 66 47 80 58 51z m68 -3 c-13 -13 -22 -15 -30 -8 -9 8 -6 13 10 18 36 11 40 9 20 -10z m-188 -172 c0 -12 -4 -16 -9 -11 -5 5 -6 14 -3 20 10 15 12 14 12 -9z m111 -2 c-3 -8 -6 -5 -6 6 -1 11 2 17 5 13 3 -3 4 -12 1 -19z m-132 -40 c6 -12 21 -30 36 -40 33 -25 72 -11 94 32 15 29 18 30 78 30 90 -1 155 -34 196 -100 l21 -35 0 -1053 0 -1052 -25 -40 c-14 -22 -43 -51 -65 -65 l-40 -25 -615 0 -615 0 -39 26 c-22 14 -51 43 -65 65 l-26 39 0 704 c0 551 3 706 13 713 6 6 30 13 52 16 44 7 187 30 276 46 122 21 186 49 227 99 17 22 15 84 -9 262 -35 262 -40 288 -62 316 -19 25 -24 26 -91 21 -66 -5 -323 -41 -373 -52 -13 -3 -23 -1 -23 4 0 15 52 67 90 90 34 20 45 21 495 21 l460 0 10 -22z m-1072 -95 c-4 -10 -2 -14 5 -9 6 3 13 2 16 -3 3 -5 -1 -11 -9 -15 -8 -3 -17 -1 -21 5 -6 10 1 39 10 39 3 0 2 -7 -1 -17z m470 3 c8 -8 18 -41 21 -73 4 -32 19 -142 33 -244 35 -252 44 -240 -220 -289 -278 -52 -648 -109 -732 -112 l-80 -3 -12 60 c-18 89 -51 328 -59 421 -6 71 -4 82 11 87 9 4 101 21 203 37 103 16 212 35 242 40 30 6 114 19 185 30 112 18 247 39 335 53 48 8 59 7 73 -7z m1525 -365 l51 -48 -23 -22 c-12 -11 -29 -21 -37 -21 -13 0 -109 85 -109 96 0 9 44 43 55 44 6 0 34 -22 63 -49z m-123 -29 c-3 -3 -11 0 -18 7 -9 10 -8 11 6 5 10 -3 15 -9 12 -12z m86 -77 c20 7 34 -10 18 -21 -8 -4 -9 -3 -5 4 4 7 3 12 -3 12 -5 0 -14 -7 -19 -17 -8 -14 -15 -11 -52 24 -26 24 -40 44 -36 52 5 8 19 1 44 -24 23 -22 43 -33 53 -30z m-116 26 c-3 -5 0 -13 6 -16 5 -4 8 -14 5 -22 -3 -8 0 -21 8 -29 21 -20 28 -17 16 6 -9 16 -8 18 5 14 21 -8 15 -38 -8 -42 -10 -2 -27 4 -38 14 -24 22 -25 46 -1 37 15 -6 15 -5 4 10 -12 14 -9 37 4 37 3 0 3 -4 -1 -9z m-24 -78 c13 -16 12 -17 -3 -4 -17 13 -22 21 -14 21 2 0 10 -8 17 -17z m-11 -22 c0 -5 8 -18 18 -27 16 -17 16 -18 -1 -11 -13 5 -17 2 -15 -11 2 -12 -3 -17 -20 -16 -16 0 -21 -4 -18 -13 3 -8 2 -11 -4 -8 -10 6 -108 -112 -168 -202 -32 -48 -52 -66 -52 -45 0 12 93 141 163 227 14 16 23 33 20 37 -2 5 1 8 6 8 6 0 11 -5 11 -12 0 -6 3 -9 6 -6 3 4 1 15 -5 26 -14 27 11 37 27 11 7 -10 17 -19 23 -19 7 0 5 10 -5 25 -20 30 -20 45 -1 45 8 0 15 -4 15 -9z m51 -24 c-10 -9 -11 -8 -5 6 3 10 9 15 12 12 3 -3 0 -11 -7 -18z m-1865 -136 c-13 -12 -17 -12 -31 3 -16 15 -15 16 14 14 27 -2 29 -4 17 -17z m-36 -114 c0 -57 -3 -106 -6 -109 -3 -4 -17 0 -32 8 -15 8 -43 14 -62 14 -27 0 -42 8 -66 34 -17 18 -37 35 -44 38 -7 2 -13 21 -14 43 -1 38 0 40 39 47 207 38 185 47 185 -75z m-245 66 c-2 -10 -4 -20 -4 -22 -1 -2 -9 3 -18 11 -10 9 -25 18 -33 21 -8 3 1 6 22 6 29 1 36 -2 33 -16z m-25 -33 c0 -14 -30 -20 -101 -20 -105 0 -88 26 21 32 52 3 80 -1 80 -12z m25 -38 c3 -29 2 -30 -21 -20 -26 12 -34 31 -9 21 9 -3 15 -2 14 3 -1 5 -1 15 0 23 2 23 11 6 16 -27z m17 -52 c15 -7 25 -17 22 -21 -3 -5 -83 -9 -179 -9 -111 0 -183 -4 -200 -12 -14 -6 -28 -8 -32 -5 -9 9 28 48 39 41 5 -3 14 -1 21 4 20 17 57 21 182 18 73 -2 131 -8 147 -16z m60 -24 c7 4 8 2 4 -4 -12 -19 -36 -15 -29 5 4 11 8 13 11 5 2 -7 9 -9 14 -6z m195 -28 c-3 -8 -6 -5 -6 6 -1 11 2 17 5 13 3 -3 4 -12 1 -19z m-63 -17 c3 -4 -6 -6 -19 -3 -19 3 -25 -1 -30 -19 -3 -13 -4 -135 -3 -272 l3 -247 -330 0 c-217 0 -325 -4 -315 -10 9 -6 10 -10 3 -10 -16 0 -26 17 -13 25 6 4 10 100 10 264 l0 259 28 5 c15 3 160 6 321 7 162 0 297 3 300 5 8 8 39 6 45 -4z m-23 -34 c-10 -9 -11 -8 -5 6 3 10 9 15 12 12 3 -3 0 -11 -7 -18z m79 13 c0 -5 -2 -10 -4 -10 -3 0 -8 5 -11 10 -3 6 -1 10 4 10 6 0 11 -4 11 -10z m-30 -19 c6 -12 10 -112 10 -255 l0 -236 -23 0 -23 0 3 153 c1 83 3 198 3 255 0 100 8 123 30 83z m37 -33 c-3 -7 -5 -2 -5 12 0 14 2 19 5 13 2 -7 2 -19 0 -25z m2067 -114 c25 -4 46 -11 46 -16 0 -5 -66 -8 -155 -6 -121 2 -154 0 -150 -9 2 -7 0 -13 -5 -13 -6 0 -10 6 -11 13 0 6 -4 3 -9 -8 -7 -15 -9 -16 -9 -4 -2 34 39 48 145 48 56 1 122 -2 148 -5z m76 -36 c0 -5 -10 -8 -22 -7 -13 0 -17 3 -10 6 6 2 12 12 12 21 0 15 2 15 10 2 5 -8 10 -18 10 -22z m14 -34 c44 -17 -14 -24 -194 -24 -181 0 -222 5 -203 24 8 8 376 8 397 0z m-408 -39 c-21 -16 -32 -13 -21 4 3 6 14 11 23 11 15 -1 15 -2 -2 -15z m468 -4 c3 -5 -2 -15 -11 -22 -15 -12 -16 -12 -10 3 4 12 2 15 -9 11 -7 -3 -14 0 -14 6 0 13 36 15 44 2z m-258 -27 c-14 -13 -17 -33 -15 -98 1 -44 -1 -80 -4 -78 -4 1 -50 2 -102 2 l-95 0 0 90 0 90 104 0 c64 0 107 4 111 11 4 6 9 8 12 5 3 -3 -2 -13 -11 -22z m212 -85 l-3 -90 -90 -2 -90 -2 2 90 c1 50 3 91 3 93 0 1 41 2 90 2 l91 0 -3 -91z m72 10 c0 -52 -3 -70 -12 -67 -8 3 -14 29 -16 71 -2 55 0 67 13 67 12 0 15 -14 15 -71z m-683 47 c-4 -10 1 -13 18 -11 14 1 22 -2 18 -8 -4 -6 5 -7 23 -3 21 5 25 4 14 -4 -8 -5 -11 -10 -7 -10 5 0 6 -4 2 -9 -3 -6 -19 -4 -39 4 -27 12 -33 12 -33 0 0 -7 7 -11 15 -7 10 3 13 1 8 -6 -8 -14 -46 -16 -46 -3 0 27 14 71 22 71 6 0 8 -6 5 -14z m153 4 c0 -5 -2 -10 -4 -10 -3 0 -8 5 -11 10 -3 6 -1 10 4 10 6 0 11 -4 11 -10z m-15 -41 c10 -31 -12 -49 -30 -26 -15 21 -10 47 10 47 8 0 17 -9 20 -21z m17 -57 c-7 -2 -9 -9 -6 -15 5 -9 4 -9 -6 0 -15 13 -4 37 13 26 8 -5 8 -8 -1 -11z m471 -74 c-11 -13 -23 -30 -26 -38 -4 -11 -6 -11 -6 3 -1 11 9 27 22 38 30 25 35 24 10 -3z m-407 -9 c3 -6 1 -16 -5 -22 -8 -8 -11 -7 -11 5 0 9 -8 19 -17 21 -14 4 -13 5 4 6 12 0 25 -4 29 -10z m-1866 -19 c0 -5 -5 -10 -11 -10 -5 0 -7 5 -4 10 3 6 8 10 11 10 2 0 4 -4 4 -10z m2212 -283 l3 -287 -167 0 -168 0 0 288 0 287 165 0 164 0 3 -288z m-2535 267 c-3 -3 -12 -4 -19 -1 -8 3 -5 6 6 6 11 1 17 -2 13 -5z m403 -49 c0 -17 -25 -20 -35 -5 -4 6 1 7 11 3 12 -4 15 -3 10 5 -4 7 -2 12 3 12 6 0 11 -7 11 -15z m-230 -26 c0 -6 9 -8 23 -4 20 6 20 6 6 -6 -9 -8 -19 -21 -22 -29 -4 -10 -6 -9 -6 6 -1 11 -6 25 -13 32 -9 9 -9 12 0 12 7 0 12 -5 12 -11z m211 -251 c1 -139 2 -269 3 -288 1 -30 -3 -35 -34 -46 -89 -30 -136 -44 -142 -44 -5 0 -8 137 -8 304 l0 305 58 6 c31 3 66 7 77 9 11 2 26 4 33 5 9 1 12 -56 13 -251z m-231 -73 l0 -315 -315 0 -315 0 0 310 0 309 63 4 c34 2 176 4 315 5 l252 2 0 -315z m2027 83 c-3 -7 -5 -2 -5 12 0 14 2 19 5 13 2 -7 2 -19 0 -25z m11 -262 c-13 -14 -28 -12 -28 5 0 5 9 9 20 9 17 0 19 -2 8 -14z m367 4 c3 -5 -1 -10 -10 -10 -9 0 -13 5 -10 10 3 6 8 10 10 10 2 0 7 -4 10 -10z m-14 -70 c-1 -25 -8 -51 -13 -58 -8 -9 -51 -12 -171 -10 l-161 3 -7 29 c-5 16 -5 42 -2 58 l6 28 176 -2 176 -3 -4 -45z m-648 -55 c-3 -9 -8 -14 -10 -11 -3 3 -2 9 2 15 9 16 15 13 8 -4z m-1701 -22 c-12 -2 -20 -9 -17 -14 4 -5 1 -9 -4 -9 -6 0 -11 7 -11 15 0 10 9 15 28 14 23 -2 24 -2 4 -6z m2353 -3 c-3 -5 -12 -10 -18 -10 -7 0 -6 4 3 10 19 12 23 12 15 0z"/> <path d="M2920 3000 c0 -19 7 -20 121 -20 115 0 166 10 154 31 -4 5 -67 9 -141 9 -127 0 -134 -1 -134 -20z"/> <path d="M3710 1939 l0 -929 -650 0 -650 0 0 595 0 595 -22 0 -23 0 3 -616 2 -616 688 4 687 5 3 940 c2 935 2 941 -18 946 -20 5 -20 2 -20 -924z"/> <path d="M2914 2340 c-103 -36 -177 -90 -233 -170 -51 -72 -70 -119 -81 -202 -33 -234 142 -466 375 -499 264 -37 496 145 522 411 20 200 -135 411 -341 466 -71 19 -180 16 -242 -6z m225 -36 c120 -30 218 -110 273 -222 31 -62 33 -74 33 -167 0 -94 -2 -104 -36 -175 -43 -90 -100 -148 -186 -192 -160 -79 -352 -42 -476 92 -117 126 -140 309 -59 460 67 124 212 214 356 219 17 1 59 -6 95 -15z"/> <path d="M2971 2219 c-129 -24 -228 -144 -238 -290 -5 -68 -3 -83 21 -135 33 -72 84 -127 151 -162 44 -24 61 -27 145 -27 87 0 100 3 149 30 182 100 217 345 71 493 -27 27 -68 59 -92 70 -49 23 -143 32 -207 21z m187 -58 c54 -27 117 -91 136 -135 24 -58 23 -183 -2 -232 -25 -49 -98 -118 -148 -139 -42 -18 -132 -20 -188 -4 -58 16 -148 109 -171 178 -40 123 29 277 150 332 56 26 173 26 223 0z"/> <path d="M3278 1473 c7 -3 16 -2 19 1 4 3 -2 6 -13 5 -11 0 -14 -3 -6 -6z"/> <path d="M3012 940 c-76 -18 -114 -108 -77 -180 20 -39 63 -60 121 -60 39 0 51 5 79 33 43 43 54 95 29 138 -35 59 -89 83 -152 69z m77 -55 c33 -17 52 -60 40 -91 -19 -52 -96 -71 -140 -35 -34 27 -33 91 1 120 30 24 61 26 99 6z"/> <path d="M2376 787 c3 -10 9 -15 12 -12 3 3 0 11 -7 18 -10 9 -11 8 -5 -6z"/> <path d="M2680 2900 c-12 -7 -12 -13 -4 -27 18 -28 48 -23 52 10 3 21 -1 27 -15 27 -10 0 -25 -5 -33 -10z"/> <path d="M2415 2867 c-93 -16 -173 -35 -177 -40 -22 -34 38 -33 229 3 172 33 169 32 149 53 -10 9 -20 16 -24 16 -4 -1 -83 -15 -177 -32z"/> <path d="M2496 2814 c-57 -21 -103 -59 -127 -106 -17 -34 -20 -55 -17 -118 3 -66 7 -82 31 -114 48 -62 102 -90 177 -90 54 -1 73 4 112 27 99 58 144 175 104 271 -48 115 -169 171 -280 130z m109 -14 c-3 -5 -12 -10 -18 -10 -7 0 -6 4 3 10 19 12 23 12 15 0z m20 -40 c31 -16 41 -17 54 -7 12 10 13 9 6 -2 -6 -10 -4 -13 6 -9 14 6 42 -16 33 -25 -3 -3 0 -16 7 -28 18 -35 14 -123 -8 -160 -51 -88 -150 -121 -233 -77 -65 35 -90 77 -90 152 0 76 28 123 92 155 53 26 83 26 133 1z m55 10 c-8 -5 -19 -10 -25 -10 -5 0 -3 5 5 10 8 5 20 10 25 10 6 0 3 -5 -5 -10z m-240 -24 c0 -2 -8 -10 -17 -17 -16 -13 -17 -12 -4 4 13 16 21 21 21 13z"/> <path d="M2502 2733 c-72 -35 -103 -136 -63 -201 29 -45 77 -72 129 -72 50 0 77 12 110 49 34 38 44 69 41 131 -3 67 -5 73 -30 60 -13 -8 -19 -7 -19 0 0 6 -5 8 -12 4 -7 -4 -8 -3 -4 5 9 14 -51 41 -91 41 -15 0 -43 -8 -61 -17z m125 -43 c37 -22 48 -54 40 -108 -13 -81 -106 -110 -169 -53 -28 25 -32 34 -30 77 2 41 7 53 34 77 39 32 80 35 125 7z m67 -25 c-4 -8 -7 -15 -9 -15 -2 0 -5 7 -9 15 -3 9 0 15 9 15 9 0 12 -6 9 -15z"/> <path d="M2542 2644 c-31 -22 -26 -63 10 -83 24 -14 28 -14 47 3 27 25 27 61 -1 80 -28 20 -28 20 -56 0z m50 -32 c3 -10 -2 -24 -10 -32 -14 -13 -15 -12 -9 4 5 14 3 17 -8 13 -8 -4 -17 -1 -21 5 -5 7 -3 8 5 4 8 -5 14 0 18 13 6 23 18 20 25 -7z"/> <path d="M2678 2728 c5 -5 16 -8 23 -6 8 3 3 7 -10 11 -17 4 -21 3 -13 -5z"/> <path d="M1987 2789 c-58 -14 -91 -34 -136 -85 -46 -53 -61 -95 -61 -175 0 -98 59 -185 155 -225 48 -20 141 -18 190 5 43 19 104 81 130 131 70 135 -23 308 -187 348 -26 7 -48 12 -50 11 -2 -1 -20 -5 -41 -10z m141 -58 c136 -69 164 -230 59 -339 -46 -49 -78 -62 -147 -62 -72 0 -117 17 -158 60 -32 33 -62 105 -62 148 0 74 70 177 135 200 50 17 132 14 173 -7z"/> <path d="M1987 2725 c-80 -20 -147 -107 -147 -189 0 -36 29 -107 55 -132 52 -52 183 -73 235 -37 85 58 121 163 87 246 -13 30 -88 107 -105 107 -4 0 -23 4 -42 9 -23 5 -54 3 -83 -4z m-37 -77 c-46 -58 -55 -84 -47 -136 7 -42 59 -97 102 -108 38 -10 91 4 125 32 56 47 61 143 10 189 -11 10 -20 22 -20 27 0 18 20 6 46 -27 56 -73 27 -187 -58 -231 -40 -21 -120 -14 -156 13 -90 67 -93 173 -6 270 45 51 49 27 4 -29z m144 35 c-18 -17 -28 -19 -76 -14 -38 3 -15 21 26 21 25 0 48 5 51 11 4 6 9 8 12 5 3 -2 -3 -13 -13 -23z m19 -23 c-3 -11 -9 -20 -15 -20 -5 0 -4 9 2 20 6 11 12 20 14 20 2 0 2 -9 -1 -20z m-34 -31 c51 -18 75 -83 50 -132 -49 -96 -189 -64 -189 43 0 33 6 48 29 71 32 31 59 36 110 18z"/> <path d="M2306 2360 c-97 -21 -101 -23 -93 -44 6 -16 42 -14 161 10 77 15 81 17 73 39 -8 19 -29 18 -141 -5z"/> <path d="M1670 2040 c0 -5 5 -10 11 -10 5 0 7 5 4 10 -3 6 -8 10 -11 10 -2 0 -4 -4 -4 -10z"/> <path d="M1773 1949 c-49 -14 -129 -98 -144 -150 -30 -103 -11 -183 59 -254 57 -57 88 -70 167 -69 79 0 115 15 170 69 67 65 88 144 64 242 -18 68 -100 147 -168 162 -61 13 -103 13 -148 0z m179 -41 c9 -1 15 -5 12 -9 -2 -4 7 -14 21 -23 118 -78 97 -279 -37 -347 -52 -26 -129 -25 -186 3 -149 75 -148 299 3 370 38 18 76 19 187 6z"/> <path d="M1778 1886 c-104 -46 -141 -170 -79 -268 64 -101 212 -120 287 -36 37 40 54 85 54 141 0 99 -81 178 -181 176 -30 0 -66 -6 -81 -13z m169 -38 c12 -2 25 -7 29 -11 5 -4 0 -5 -11 -1 -17 7 -15 2 8 -25 35 -42 41 -133 11 -175 -10 -15 -11 -23 -2 -35 10 -13 10 -14 -1 -4 -10 9 -24 6 -59 -13 -35 -19 -54 -23 -81 -18 -88 16 -131 66 -131 154 0 47 3 54 46 96 l45 46 62 -6 c34 -3 72 -7 84 -8z m-217 -22 c0 -2 -8 -10 -17 -17 -16 -13 -17 -12 -4 4 13 16 21 21 21 13z"/> <path d="M1792 1823 c-90 -44 -82 -182 13 -224 55 -24 97 -16 141 27 107 108 -16 265 -154 197z m114 -29 c38 -18 59 -69 44 -109 -15 -39 -66 -68 -107 -62 -73 12 -102 71 -68 137 27 51 70 63 131 34z"/> <path d="M1591 1514 c0 -11 3 -14 6 -6 3 7 2 16 -1 19 -3 4 -6 -2 -5 -13z"/> <path d="M1650 1250 c-105 -19 -180 -115 -180 -230 0 -92 65 -179 154 -205 85 -26 140 -15 204 41 63 54 86 104 79 177 -3 36 -11 63 -21 70 -16 13 -12 57 6 57 5 0 6 -5 2 -12 -5 -8 -2 -9 12 -4 10 4 15 4 11 0 -4 -4 -1 -14 6 -22 10 -13 9 -14 -2 -7 -11 6 -13 4 -6 -11 10 -23 14 -205 5 -199 -4 3 -21 -13 -39 -35 -18 -22 -45 -47 -61 -55 -18 -9 -30 -24 -30 -35 0 -62 120 33 163 129 41 93 9 261 -50 261 -8 0 -34 13 -58 30 -51 35 -145 59 -195 50z m121 -63 c117 -62 134 -215 33 -292 -57 -43 -99 -57 -142 -46 -118 33 -179 142 -135 243 18 40 76 97 113 111 34 12 89 6 131 -16z m-201 -1 c0 -2 -8 -10 -17 -17 -16 -13 -17 -12 -4 4 13 16 21 21 21 13z m300 -36 c0 -5 -2 -10 -4 -10 -3 0 -8 5 -11 10 -3 6 -1 10 4 10 6 0 11 -4 11 -10z"/> <path d="M1655 1159 c-16 -5 -37 -15 -46 -22 -25 -19 -59 -79 -59 -105 0 -39 27 -88 63 -116 72 -55 170 -27 212 60 49 103 -58 219 -170 183z m108 -68 c14 -17 27 -27 30 -24 6 6 0 -26 -15 -75 -20 -65 -114 -80 -158 -25 -28 36 -26 85 6 122 21 26 33 31 69 31 36 0 48 -5 68 -29z"/> <path d="M1880 1120 c0 -5 5 -10 11 -10 5 0 7 5 4 10 -3 6 -8 10 -11 10 -2 0 -4 -4 -4 -10z"/> </g> </svg>