<?xml version="1.0" standalone="no"?> <!DOCTYPE svg PUBLIC "-//W3C//DTD SVG 20010904//EN" "http://www.w3.org/TR/2001/REC-SVG-20010904/DTD/svg10.dtd"> <svg version="1.0" xmlns="http://www.w3.org/2000/svg" width="431.000000pt" height="375.000000pt" viewBox="0 0 431.000000 375.000000" preserveAspectRatio="xMidYMid meet"> <g transform="translate(0.000000,375.000000) scale(0.100000,-0.100000)" fill="#f92f2f" stroke="none"> <path d="M3085 3418 c-104 -4 -413 -17 -685 -28 -272 -11 -646 -27 -830 -34 -276 -10 -342 -15 -369 -29 -19 -9 -43 -17 -54 -17 -31 0 -83 -37 -96 -68 -6 -15 -22 -80 -36 -144 -13 -64 -27 -128 -31 -142 l-6 -25 49 18 48 17 26 123 c15 70 32 127 40 132 8 5 26 6 41 3 16 -3 28 -1 28 4 0 25 70 33 453 47 221 8 555 22 742 30 379 17 809 34 811 31 1 0 -8 -53 -21 -116 -12 -63 -37 -191 -54 -285 -18 -93 -38 -201 -46 -240 -18 -92 -65 -336 -149 -780 -45 -234 -65 -337 -105 -548 -26 -131 -64 -339 -91 -492 -40 -227 -51 -279 -65 -305 -16 -32 -78 -88 -109 -99 -11 -5 -140 0 -286 10 -263 18 -569 39 -1165 80 -171 11 -333 25 -360 30 -113 21 -160 86 -153 213 l3 72 -45 -12 -45 -11 -27 -129 c-14 -71 -27 -150 -27 -176 -2 -106 73 -224 174 -275 56 -29 111 -34 1305 -123 140 -11 350 -27 465 -36 116 -9 237 -13 270 -10 90 9 172 53 244 133 l61 66 103 -6 c177 -11 439 -22 527 -22 76 0 93 3 152 33 102 50 172 148 184 260 3 27 -7 145 -25 277 -71 538 -94 711 -131 995 -17 126 -60 460 -131 995 -11 83 -26 202 -35 265 -8 63 -15 139 -15 168 -1 42 -5 55 -22 67 -12 8 -28 15 -35 15 -8 0 -44 13 -80 29 -90 39 -172 47 -397 39z m104 -30 c11 -11 12 -10 6 0 -5 11 9 13 73 11 44 -2 79 -6 76 -10 -2 -4 6 -7 19 -8 44 -1 77 -8 84 -16 5 -4 2 -5 -6 0 -9 5 -12 4 -7 -3 4 -6 13 -9 21 -6 7 3 24 0 37 -7 13 -7 27 -12 31 -11 5 1 5 -3 2 -9 -5 -7 -11 -7 -17 -1 -6 6 -17 8 -26 5 -11 -5 -13 -3 -7 8 7 12 6 12 -7 1 -11 -9 -23 -10 -43 -2 -15 6 -30 8 -35 5 -4 -3 -13 2 -20 10 -12 15 -53 12 -76 -6 -6 -5 -15 -5 -19 -1 -5 4 -6 2 -2 -3 3 -6 -1 -35 -9 -65 -8 -30 -12 -61 -9 -67 2 -7 0 -13 -6 -13 -6 0 -8 -4 -5 -9 9 -14 -5 -71 -16 -65 -5 3 -6 -7 -3 -23 5 -24 -5 -82 -32 -203 -4 -14 -5 -36 -4 -50 2 -20 0 -22 -9 -10 -9 12 -10 11 -5 -7 3 -13 3 -28 -1 -35 -4 -6 -9 -37 -11 -67 -3 -31 -11 -67 -20 -80 -10 -15 -11 -21 -2 -16 8 6 10 4 4 -5 -5 -8 -10 -25 -11 -39 -5 -48 -15 -96 -30 -142 -8 -26 -14 -51 -12 -55 1 -5 -4 -43 -11 -85 -9 -53 -19 -79 -32 -87 -11 -7 -19 -11 -19 -10 0 2 7 27 15 57 8 30 12 57 10 61 -3 4 0 22 6 41 5 19 10 48 11 66 1 19 5 30 11 26 6 -4 8 0 4 10 -4 10 -2 36 3 60 8 39 17 81 54 277 8 41 23 118 32 170 10 52 22 98 27 101 5 4 4 9 -2 14 -9 5 -9 10 -1 20 6 7 13 33 16 57 3 23 7 51 10 62 14 43 12 101 -2 117 -12 14 -31 16 -102 12 -48 -2 -141 -6 -207 -8 -66 -3 -129 -7 -140 -10 -11 -2 -26 0 -34 4 -9 6 -22 5 -34 -2 -15 -9 -21 -9 -24 1 -3 6 -9 12 -14 12 -6 0 -7 -4 -4 -10 4 -6 -5 -10 -19 -10 -14 0 -26 5 -26 11 0 8 -4 8 -13 1 -15 -13 -126 -21 -386 -27 -106 -3 -197 -8 -202 -10 -4 -3 -10 -1 -14 5 -3 5 -12 10 -18 10 -7 0 -6 -4 3 -10 11 -7 -2 -9 -43 -9 -32 1 -61 -1 -64 -5 -4 -3 -17 1 -31 10 -13 8 -26 13 -30 10 -3 -3 0 -6 6 -6 7 0 12 -3 12 -7 0 -8 -256 -18 -457 -18 -65 0 -109 -4 -105 -9 3 -5 -2 -6 -11 -3 -49 20 -53 20 -32 3 11 -10 14 -14 6 -10 -7 3 -17 0 -22 -7 -11 -18 -31 -18 -45 0 -9 11 -12 12 -19 1 -5 -9 -4 -11 3 -6 7 4 12 3 12 -2 0 -14 -28 -23 -32 -10 -2 5 -10 2 -18 -8 -13 -16 -13 -17 0 -10 9 4 8 1 -2 -7 -10 -8 -18 -20 -18 -26 0 -7 -4 -10 -8 -7 -4 2 -8 -3 -9 -12 -1 -31 -10 -77 -18 -95 -4 -9 -5 -28 -3 -42 3 -13 2 -23 -1 -21 -3 2 -13 -3 -21 -12 -13 -14 -12 -15 4 -9 12 5 16 3 14 -5 -3 -7 -14 -14 -25 -16 -20 -3 -20 -2 -4 62 9 37 20 62 26 58 5 -3 4 1 -3 10 -9 11 -10 18 -2 23 6 3 8 11 4 16 -3 5 0 16 6 24 7 8 9 15 5 15 -4 0 -2 6 4 13 6 8 8 16 5 20 -5 5 32 49 39 46 1 0 14 5 29 12 22 9 30 9 43 -1 13 -11 14 -10 10 3 -13 33 118 46 490 50 105 1 183 6 188 12 6 6 10 6 14 -2 2 -7 11 -13 19 -13 9 0 13 4 10 8 -3 5 34 9 82 10 48 1 146 4 217 7 72 4 196 8 277 10 80 1 151 6 157 10 6 3 25 4 41 0 22 -5 30 -3 30 7 0 11 2 11 9 -1 5 -7 17 -11 27 -7 11 3 104 8 209 11 104 3 191 8 194 10 7 8 16 6 30 -7z m186 -62 c17 -2 43 -9 59 -16 26 -10 27 -12 14 -28 -10 -10 -35 -130 -67 -317 -28 -165 -60 -347 -71 -405 -10 -58 -42 -238 -70 -400 -28 -162 -57 -329 -65 -370 -7 -41 -26 -145 -40 -230 -15 -85 -33 -189 -40 -230 -8 -41 -26 -142 -40 -225 -14 -82 -34 -199 -45 -260 -11 -60 -34 -186 -50 -280 -33 -183 -51 -232 -106 -289 -75 -77 -153 -97 -321 -85 -60 5 -232 18 -383 29 -151 11 -358 27 -460 35 -102 8 -248 19 -325 25 -469 33 -647 51 -678 66 -91 46 -145 144 -130 237 l6 38 28 -34 c15 -19 52 -44 81 -57 58 -25 241 -42 1028 -94 212 -14 494 -33 627 -42 225 -16 244 -16 283 0 110 44 168 133 195 301 28 173 120 660 356 1890 22 116 51 271 65 345 14 74 31 164 39 200 7 36 19 98 25 137 11 67 14 73 33 69 12 -3 36 -7 52 -10z m127 -22 c-3 -18 -3 -18 12 1 8 11 16 16 16 10 0 -5 4 -4 8 3 7 10 15 10 36 2 22 -8 25 -13 17 -29 -6 -10 -9 -20 -7 -22 9 -11 15 -69 6 -64 -6 4 -6 -5 1 -22 6 -15 11 -51 12 -79 1 -29 5 -50 8 -48 4 2 10 -27 14 -64 4 -37 9 -80 11 -95 2 -17 -1 -25 -7 -21 -6 3 -3 -8 6 -26 12 -23 15 -45 11 -74 -4 -25 -3 -36 2 -28 8 13 18 -52 26 -168 1 -20 6 -41 10 -48 4 -7 4 -17 1 -22 -4 -6 -2 -25 4 -43 6 -17 13 -69 16 -114 3 -45 8 -92 13 -105 4 -13 7 -39 7 -58 0 -19 3 -37 7 -40 4 -3 10 -37 13 -75 6 -81 9 -102 24 -205 16 -99 31 -213 36 -275 6 -70 14 -135 21 -168 3 -15 7 -42 9 -60 2 -17 9 -79 15 -137 7 -58 13 -113 13 -122 1 -10 5 -18 10 -18 7 0 9 -23 7 -128 0 -23 4 -42 9 -42 5 0 9 -15 9 -34 0 -18 5 -42 10 -52 6 -11 9 -34 7 -53 -2 -31 7 -86 21 -135 5 -14 3 -16 -7 -10 -12 7 -12 5 -1 -9 8 -9 11 -24 8 -34 -3 -10 -8 -33 -10 -52 -2 -18 -14 -47 -26 -63 -13 -17 -16 -27 -9 -23 18 11 -1 -13 -55 -72 -33 -36 -41 -41 -59 -31 -20 10 -20 11 4 28 13 10 28 18 34 17 5 -1 9 6 7 17 -2 11 1 15 7 11 6 -3 14 1 17 9 3 9 11 13 18 9 6 -4 6 0 -2 9 -11 13 -11 18 0 24 7 5 17 9 22 9 5 0 11 7 13 15 4 13 3 13 -7 0 -9 -12 -10 -7 -4 20 3 19 11 41 16 48 7 8 7 12 -3 12 -9 0 -10 3 -2 11 8 8 8 22 1 46 -5 20 -7 44 -5 54 3 11 1 19 -4 19 -12 0 -11 51 1 70 5 9 5 19 -2 27 -5 7 -8 20 -4 28 3 9 -1 18 -9 22 -12 4 -13 9 -4 19 6 8 7 14 2 14 -6 0 -16 46 -23 103 -7 56 -14 115 -16 132 -2 16 -7 38 -10 49 -4 12 -2 16 5 12 13 -9 15 6 2 20 -5 5 -14 49 -20 97 -9 68 -9 92 0 103 6 8 9 17 5 21 -3 3 -6 1 -6 -6 0 -7 -4 -9 -10 -6 -5 3 -10 13 -10 21 0 8 5 12 10 9 6 -3 10 -2 10 4 0 5 -5 11 -11 13 -10 3 -36 187 -70 486 -11 97 -11 115 2 123 11 8 10 9 -6 7 -17 -3 -20 3 -22 37 -3 48 -6 76 -27 219 -9 59 -14 117 -11 127 4 11 2 19 -5 19 -6 0 -9 4 -6 8 3 5 -2 48 -10 97 -9 49 -14 99 -11 112 2 13 0 23 -5 23 -6 0 -8 15 -6 34 2 19 0 32 -4 30 -5 -3 -8 10 -7 28 1 18 -2 49 -6 68 -6 34 -12 86 -19 160 -1 19 -5 42 -8 50 -13 35 -24 120 -16 122 5 2 0 13 -11 25 -11 11 -17 25 -13 29 4 5 -1 2 -10 -5 -9 -7 -22 -10 -27 -6 -7 3 -8 0 -5 -9 3 -9 1 -16 -4 -16 -6 0 -14 -26 -18 -57 -3 -32 -9 -67 -11 -78 -12 -49 -10 -93 12 -240 10 -71 19 -162 19 -192 0 -20 4 -30 10 -26 6 3 3 -3 -7 -13 -15 -16 -19 -17 -27 -4 -13 20 -12 47 1 72 8 15 8 19 0 14 -6 -4 -11 -2 -11 4 0 7 -8 22 -18 35 l-19 24 -16 -35 c-10 -19 -17 -48 -17 -64 0 -17 -5 -30 -12 -30 -10 0 -9 -3 1 -9 11 -7 9 -13 -8 -30 -25 -25 -27 -33 -6 -25 20 8 19 -5 -2 -29 -10 -11 -13 -18 -8 -14 6 3 11 -3 11 -14 0 -11 -7 -19 -18 -19 -11 0 -15 -5 -12 -15 4 -8 11 -12 16 -9 6 4 5 -3 -1 -15 -6 -11 -8 -33 -5 -47 4 -17 3 -25 -3 -21 -6 4 -9 -8 -7 -30 2 -25 0 -32 -6 -23 -6 10 -8 -1 -6 -32 1 -29 -1 -45 -7 -41 -6 4 -8 -3 -5 -15 4 -12 2 -22 -4 -22 -5 0 -7 -4 -3 -10 5 -8 -11 -126 -22 -160 -3 -8 -7 -31 -9 -50 -2 -19 -8 -36 -13 -38 -6 -2 -8 -9 -5 -15 2 -7 0 -42 -6 -77 -6 -36 -13 -81 -16 -100 -2 -19 -6 -42 -7 -50 -1 -8 -8 -25 -15 -38 -10 -18 -11 -27 -2 -37 17 -21 -8 -89 -27 -73 -14 12 -16 8 -7 -16 3 -9 11 -13 17 -9 5 3 7 2 4 -4 -6 -10 -26 -108 -31 -155 -2 -16 -4 -33 -5 -39 0 -5 -6 -7 -12 -3 -8 5 -8 1 0 -14 14 -26 14 -35 0 -26 -9 5 -10 -1 -5 -20 4 -15 3 -25 -1 -23 -4 3 -8 -11 -9 -31 -2 -70 -14 -145 -25 -158 -6 -7 -8 -23 -4 -35 4 -12 3 -19 -2 -16 -5 3 -7 -10 -5 -30 3 -23 1 -33 -6 -29 -7 4 -10 -10 -9 -39 1 -31 -3 -49 -13 -55 -26 -16 -31 5 -15 73 8 37 18 88 21 114 3 26 8 52 12 58 4 5 5 18 3 29 -1 11 2 16 8 12 6 -4 9 -1 5 7 -3 8 -1 39 5 68 6 30 13 78 16 107 3 29 9 61 14 70 5 10 9 28 9 42 0 38 10 105 32 215 11 55 22 115 25 134 3 18 8 38 11 43 4 6 8 29 10 52 2 22 6 57 9 76 3 19 8 56 12 82 3 26 9 45 13 43 4 -3 8 1 7 8 -2 50 5 97 12 93 5 -4 7 3 4 14 -3 11 0 27 7 35 7 9 10 18 6 22 -3 3 -6 0 -6 -7 0 -7 -2 -11 -5 -8 -3 3 0 18 6 34 6 16 11 42 11 58 -1 16 4 38 10 49 5 11 11 40 13 66 1 25 10 84 20 131 9 47 19 105 21 130 3 25 8 52 12 60 3 8 7 26 9 40 2 14 5 39 7 55 2 17 4 40 5 53 0 13 4 21 9 19 4 -3 7 11 6 31 0 21 3 45 8 55 5 10 11 34 13 55 2 20 5 37 5 37 1 0 4 16 6 35 2 19 6 44 8 55 3 11 5 26 5 33 1 6 8 12 16 12 8 0 15 5 15 11 0 5 -6 7 -12 3 -8 -5 -7 0 2 11 8 10 10 16 4 12 -7 -4 -14 -1 -17 6 -3 9 2 13 16 12 16 -2 21 -8 19 -21z m36 -106 c1 -18 14 -121 28 -228 14 -107 34 -262 45 -345 10 -82 28 -217 39 -300 29 -216 66 -495 90 -680 11 -88 29 -225 40 -305 10 -80 31 -235 45 -345 15 -110 32 -243 40 -296 16 -117 7 -169 -39 -237 -22 -31 -51 -56 -86 -74 -62 -33 -63 -33 -451 -16 -262 11 -276 13 -271 30 4 17 12 18 71 13 250 -20 555 -36 585 -31 49 9 112 71 121 118 6 33 -5 140 -51 468 -8 58 -21 159 -29 225 -8 66 -26 208 -40 315 -14 107 -34 263 -45 345 -10 83 -28 220 -39 305 -36 277 -70 543 -81 630 -6 47 -15 119 -21 161 -7 59 -6 97 6 174 9 54 18 102 21 107 10 15 20 0 22 -34z m-88 -614 c11 -88 24 -190 30 -229 6 -38 17 -124 25 -190 17 -142 132 -1036 176 -1360 11 -82 22 -184 26 -226 6 -74 5 -76 -23 -98 -23 -18 -37 -22 -69 -18 -22 3 -162 14 -311 23 l-271 18 8 36 c5 20 19 101 33 180 27 152 88 503 131 750 49 278 66 376 80 455 7 44 27 159 45 255 60 335 90 518 90 546 0 63 12 7 30 -142z m60 -6 c0 -18 2 -46 5 -63 19 -120 23 -150 19 -156 -2 -4 0 -18 5 -31 10 -26 24 -171 23 -228 -1 -22 2 -30 7 -22 5 9 10 0 15 -28 4 -28 2 -47 -6 -58 -11 -13 -11 -14 0 -8 10 6 11 1 6 -18 -3 -15 -2 -26 3 -26 6 0 10 -12 10 -27 -1 -61 8 -138 16 -144 5 -4 10 -32 11 -63 0 -31 4 -56 8 -56 4 0 5 -28 3 -62 -2 -41 0 -56 5 -43 6 14 8 4 7 -32 -2 -28 1 -49 6 -46 4 3 6 -15 4 -39 -3 -30 0 -48 10 -60 12 -14 13 -21 4 -32 -8 -10 -9 -16 -1 -21 5 -3 10 -13 10 -21 0 -8 -4 -12 -10 -9 -5 3 -10 0 -10 -8 0 -8 7 -17 15 -21 10 -3 14 -17 13 -38 0 -18 4 -62 10 -98 6 -36 14 -96 17 -135 3 -38 10 -92 15 -120 4 -27 9 -57 10 -65 0 -8 3 -33 6 -55 2 -22 6 -56 8 -75 2 -19 6 -51 10 -70 12 -65 13 -100 4 -106 -5 -3 -14 -17 -19 -31 -8 -21 -12 -23 -24 -13 -13 11 -14 10 -9 -3 3 -9 -2 -19 -13 -25 -24 -12 -106 -25 -100 -15 7 11 -57 10 -65 -1 -4 -6 -12 -5 -21 2 -8 7 -22 9 -32 6 -15 -6 -16 -4 -6 14 13 24 41 30 42 10 0 -10 2 -10 6 0 5 14 33 17 33 3 0 -5 22 -7 49 -5 53 4 125 39 114 57 -4 7 0 8 13 3 15 -5 16 -4 7 5 -14 14 -5 42 11 32 8 -5 8 -3 0 8 -17 21 -37 137 -37 216 0 18 -4 30 -7 28 -7 -4 -11 42 -12 137 0 21 -4 35 -9 32 -5 -3 -9 10 -10 28 0 18 -3 53 -7 78 -3 25 -6 66 -7 92 0 25 -4 44 -9 40 -5 -3 -7 11 -3 31 3 23 2 37 -5 37 -5 0 -7 7 -4 16 3 9 3 21 -1 27 -4 7 -9 28 -10 47 -1 19 -7 74 -13 121 -5 48 -7 95 -3 105 4 12 3 15 -5 10 -8 -5 -12 3 -13 26 0 18 -2 42 -5 53 -2 11 -6 49 -8 85 -2 36 -9 92 -15 124 -6 32 -9 62 -6 66 2 3 -2 28 -10 53 -11 36 -11 47 -2 47 8 0 8 3 -1 9 -9 5 -14 35 -15 94 -1 47 -5 80 -8 75 -8 -12 -18 70 -21 169 -2 34 -6 56 -11 50 -4 -7 -5 14 -3 46 3 36 1 55 -5 52 -9 -6 -10 50 -2 68 10 19 24 4 23 -25z m-449 -377 c-6 -10 -7 -21 -4 -25 4 -3 1 -16 -5 -29 -6 -12 -13 -40 -16 -62 -2 -22 -8 -51 -11 -65 -3 -14 -12 -65 -20 -115 -7 -49 -18 -110 -25 -135 -7 -25 -14 -58 -16 -75 -2 -16 -6 -36 -9 -44 -3 -7 -8 -34 -11 -60 -7 -65 -13 -82 -27 -74 -9 5 -9 3 0 -8 13 -16 7 -54 -11 -78 -8 -10 -8 -13 0 -8 7 4 7 -14 -2 -59 -12 -68 -19 -82 -31 -70 -4 4 -1 11 7 16 11 7 11 10 2 10 -22 0 -27 -32 -7 -46 17 -13 17 -14 2 -14 -9 0 -17 -4 -17 -10 0 -5 3 -10 8 -10 4 0 5 -21 3 -46 -2 -33 -6 -42 -12 -33 -7 9 -8 5 -3 -13 3 -14 1 -36 -6 -47 -6 -12 -13 -45 -17 -74 -7 -63 -11 -92 -13 -92 -1 0 -3 -13 -6 -30 -2 -16 -4 -36 -5 -42 -1 -7 -6 -13 -11 -13 -5 0 -7 -8 -3 -18 5 -19 -17 -126 -26 -118 -2 2 -2 -16 0 -41 2 -36 0 -44 -10 -37 -11 6 -11 5 0 -9 8 -10 11 -21 7 -24 -4 -4 -12 -1 -17 7 -8 12 -9 10 -4 -7 8 -30 -4 -73 -22 -73 -8 0 -11 5 -7 13 4 6 3 9 -1 4 -5 -4 -10 -18 -12 -30 -2 -17 -1 -19 7 -7 5 8 10 11 10 5 0 -5 -9 -21 -19 -34 -14 -18 -20 -21 -26 -11 -5 7 -4 11 1 7 5 -3 9 10 10 29 0 19 8 42 16 51 14 17 20 38 48 163 7 30 18 61 24 69 8 12 8 13 -2 7 -10 -6 -11 2 -6 36 4 24 11 44 16 46 4 2 5 15 2 29 -5 20 -4 24 6 18 8 -5 11 -4 7 1 -5 8 6 92 29 224 3 19 10 39 15 45 11 11 12 28 1 21 -9 -6 0 73 11 90 3 6 9 26 12 45 3 19 11 59 17 89 16 71 15 69 17 110 1 23 4 31 10 22 6 -10 10 -8 14 9 3 13 2 28 -3 34 -10 12 -2 57 10 50 4 -2 5 6 3 19 -3 13 3 36 14 52 12 19 13 25 4 19 -11 -6 -13 -4 -7 11 4 10 9 35 12 54 2 19 7 43 10 53 3 10 7 32 10 50 8 71 37 203 47 215 6 8 6 12 -2 12 -6 0 -11 5 -11 10 0 7 6 7 20 0 11 -6 20 -7 20 -1 0 5 -7 11 -15 15 -8 3 -15 10 -15 16 0 5 7 10 15 10 8 0 15 5 15 10 0 6 5 10 10 10 7 0 7 -6 1 -19z m5 -1361 c-1 -15 -8 -35 -16 -46 -11 -13 -11 -16 -2 -10 11 7 12 4 3 -13 -7 -12 -9 -26 -6 -32 4 -5 1 -17 -7 -26 -11 -14 -11 -16 1 -9 10 6 12 4 7 -10 -3 -11 -7 -30 -10 -44 -2 -14 -10 -41 -18 -60 -15 -35 -10 -78 11 -104 7 -8 44 -13 107 -15 54 -1 101 -4 106 -7 5 -4 49 -6 98 -5 49 1 91 -3 95 -8 3 -6 13 -7 22 -4 11 4 14 2 11 -8 -4 -10 -25 -14 -85 -14 -45 0 -80 2 -78 5 2 3 -29 5 -68 6 -40 0 -104 3 -143 6 -66 5 -73 3 -89 -18 -17 -23 -18 -30 -6 -52 6 -11 143 -23 311 -26 30 -1 58 -5 61 -10 4 -4 16 -3 28 4 14 7 27 8 34 2 7 -5 64 -9 129 -8 64 1 114 -2 112 -5 -2 -3 15 3 37 14 39 19 41 19 57 2 9 -10 11 -15 5 -11 -7 4 -13 3 -13 -1 0 -13 -90 -37 -135 -36 -102 2 -146 6 -150 13 -3 4 -21 4 -41 0 -40 -9 -64 -4 -64 13 0 7 -4 7 -12 -1 -16 -16 -60 -15 -77 1 -11 10 -12 9 -6 -2 6 -11 4 -13 -8 -8 -23 9 -278 10 -299 2 -10 -4 -15 -12 -11 -19 3 -6 -3 -3 -14 7 -16 14 -20 14 -20 2 0 -8 5 -11 10 -8 5 3 7 0 5 -8 -3 -8 -10 -13 -16 -12 -6 2 -9 -4 -6 -12 4 -8 2 -15 -4 -15 -13 0 -25 32 -15 39 4 3 13 15 20 26 6 11 16 19 23 17 6 -1 9 2 6 7 -7 11 4 42 13 37 3 -2 7 10 7 27 3 59 14 139 23 156 5 9 6 22 4 29 -3 6 0 12 7 12 8 0 8 6 0 20 -6 12 -7 20 -1 20 5 0 11 -8 13 -17 3 -16 4 -16 10 -2 4 9 0 29 -8 44 -11 22 -12 31 -2 42 6 8 12 33 13 56 1 23 5 56 9 73 9 38 34 41 32 4z m-2487 -42 c2 -63 8 -99 20 -111 6 -6 11 -16 11 -23 0 -14 66 -74 82 -74 7 0 7 -4 0 -13 -8 -10 -6 -13 8 -13 10 0 16 5 13 10 -4 5 -1 6 8 1 7 -5 32 -10 54 -12 22 -2 54 -5 70 -8 37 -6 287 -23 423 -29 12 -1 22 -4 22 -9 0 -12 -46 -26 -77 -22 -33 3 -227 17 -296 20 -26 1 -50 5 -53 8 -3 3 -12 3 -20 0 -8 -3 -22 -2 -31 2 -10 4 -31 7 -47 6 -55 -5 -175 66 -159 93 3 6 3 8 -2 4 -4 -4 -14 -3 -22 3 -18 15 -40 -4 -47 -39 -15 -84 -17 -107 -6 -92 10 12 11 11 7 -7 -3 -13 -1 -23 3 -23 5 0 11 -14 15 -30 4 -18 11 -27 17 -24 6 4 8 2 4 -4 -3 -6 -2 -13 4 -17 6 -4 7 -11 4 -17 -5 -8 -1 -9 12 -4 10 4 15 4 12 0 -9 -9 15 -33 26 -26 5 3 6 0 2 -7 -5 -8 -3 -12 5 -11 21 3 59 -11 59 -22 0 -5 5 -6 10 -3 6 4 19 4 28 0 9 -4 51 -9 92 -11 41 -2 104 -6 140 -9 36 -4 74 -6 85 -7 40 0 66 -9 59 -19 -4 -8 0 -8 12 -2 11 5 33 8 49 7 17 -1 59 -3 95 -4 36 -2 73 -8 84 -13 13 -7 16 -6 11 3 -5 8 -2 10 11 7 11 -3 57 -9 104 -12 47 -4 98 -9 113 -10 15 -2 83 -6 150 -10 67 -3 138 -8 157 -10 19 -3 73 -7 120 -10 47 -3 101 -7 120 -10 19 -3 73 -7 120 -10 150 -9 220 -17 220 -27 0 -5 8 -4 19 1 10 6 21 7 25 4 6 -6 116 -5 186 2 34 3 81 26 74 36 -3 5 1 6 9 3 8 -3 20 2 27 10 7 9 16 13 21 10 5 -3 9 0 9 5 0 6 4 11 9 11 6 0 9 -9 8 -20 -1 -15 -12 -23 -39 -31 -21 -5 -38 -12 -38 -15 0 -3 10 -3 23 1 20 5 20 5 4 -5 -10 -7 -27 -10 -37 -7 -14 3 -17 1 -13 -11 4 -10 2 -13 -6 -8 -6 4 -17 3 -24 -2 -7 -5 -32 -12 -57 -16 -34 -5 -41 -4 -30 5 12 9 11 9 -5 3 -11 -4 -27 -7 -35 -6 -22 1 -94 10 -100 12 -3 1 -9 1 -15 0 -39 -8 -68 -9 -56 -1 9 6 -4 8 -35 6 -67 -3 -275 14 -351 29 -34 7 -59 8 -56 3 3 -5 -7 -6 -26 -2 -17 4 -53 7 -79 7 -26 -1 -57 6 -69 14 -26 16 -43 18 -43 4 0 -5 6 -7 14 -4 8 3 17 0 21 -6 5 -9 -3 -10 -31 -5 -22 4 -70 8 -109 9 -38 2 -83 5 -100 9 -16 3 -77 9 -135 12 -106 6 -174 11 -265 20 -50 6 -152 14 -235 20 -109 8 -214 18 -253 24 -5 0 -5 6 -1 13 4 7 3 8 -4 4 -6 -4 -22 -1 -34 6 -13 7 -26 11 -31 10 -4 -1 -6 2 -5 7 2 5 1 9 -2 8 -13 -1 -50 25 -45 32 2 5 -1 14 -9 20 -27 23 -58 113 -58 171 0 66 20 172 31 166 4 -3 5 9 3 26 -3 17 -1 28 4 25 5 -3 9 7 8 21 -1 29 13 55 26 47 4 -3 8 -20 9 -37z m771 -298 c0 -11 -3 -12 -42 -14 -32 -2 -34 1 -12 25 13 14 21 16 35 8 11 -5 19 -14 19 -19z m35 10 c-3 -5 13 -6 35 -3 23 3 112 0 198 -6 263 -20 302 -22 365 -26 34 -2 63 -9 65 -14 2 -6 8 -11 13 -11 4 0 5 8 2 17 -5 13 -3 15 13 9 20 -8 48 -11 204 -20 52 -3 118 -9 145 -12 66 -9 143 -6 163 5 9 5 23 6 33 1 11 -6 16 -5 16 5 0 8 -5 11 -11 8 -6 -4 -2 3 8 15 19 22 53 31 41 12 -4 -6 -12 -7 -18 -4 -8 5 -8 3 1 -7 14 -16 16 -33 2 -24 -5 3 -10 2 -10 -4 0 -6 -19 -20 -42 -31 -48 -23 -52 -24 -43 -10 4 7 -3 7 -20 0 -15 -6 -32 -7 -38 -3 -6 4 -47 8 -92 9 -44 1 -107 5 -140 8 -33 4 -82 7 -109 7 -27 0 -58 4 -68 10 -10 5 -18 6 -18 1 0 -4 -38 -3 -85 3 -54 8 -82 8 -78 2 4 -7 -1 -8 -12 -3 -11 4 -60 9 -110 12 -49 3 -103 7 -120 9 -16 2 -82 7 -145 10 -130 6 -162 11 -172 28 -13 20 -9 25 12 20 11 -3 18 -9 15 -13z m1510 -261 c4 -11 4 -23 0 -27 -7 -7 -25 17 -25 36 0 20 18 14 25 -9z"/> <path d="M1608 3323 c7 -3 16 -2 19 1 4 3 -2 6 -13 5 -11 0 -14 -3 -6 -6z"/> <path d="M3191 2994 c0 -11 3 -14 6 -6 3 7 2 16 -1 19 -3 4 -6 -2 -5 -13z"/> <path d="M3071 2354 c0 -11 3 -14 6 -6 3 7 2 16 -1 19 -3 4 -6 -2 -5 -13z"/> <path d="M3554 3285 c1 -8 6 -18 11 -22 4 -4 5 -3 2 4 -4 6 -2 13 5 15 8 3 6 6 -4 10 -10 4 -15 2 -14 -7z"/> <path d="M3611 2974 c0 -11 3 -14 6 -6 3 7 2 16 -1 19 -3 4 -6 -2 -5 -13z"/> <path d="M3470 2659 c0 -5 5 -7 10 -4 6 3 10 8 10 11 0 2 -4 4 -10 4 -5 0 -10 -5 -10 -11z"/> <path d="M3676 2435 c-9 -26 -7 -32 5 -12 6 10 9 21 6 23 -2 3 -7 -2 -11 -11z"/> <path d="M3700 2179 c0 -5 5 -7 10 -4 6 3 10 8 10 11 0 2 -4 4 -10 4 -5 0 -10 -5 -10 -11z"/> <path d="M3716 2121 c-4 -7 -5 -15 -2 -18 9 -9 19 4 14 18 -4 11 -6 11 -12 0z"/> <path d="M3196 1623 c-6 -14 -5 -15 5 -6 7 7 10 15 7 18 -3 3 -9 -2 -12 -12z"/> <path d="M3861 974 c0 -11 3 -14 6 -6 3 7 2 16 -1 19 -3 4 -6 -2 -5 -13z"/> <path d="M3790 370 c-9 -6 -10 -10 -3 -10 6 0 15 5 18 10 8 12 4 12 -15 0z"/> <path d="M3541 2164 c0 -11 3 -14 6 -6 3 7 2 16 -1 19 -3 4 -6 -2 -5 -13z"/> <path d="M3571 2024 c0 -11 3 -14 6 -6 3 7 2 16 -1 19 -3 4 -6 -2 -5 -13z"/> <path d="M3645 1360 c-3 -5 -1 -10 4 -10 6 0 11 5 11 10 0 6 -2 10 -4 10 -3 0 -8 -4 -11 -10z"/> <path d="M3683 435 c0 -7 6 -11 14 -8 7 3 13 6 13 8 0 2 -6 5 -13 8 -8 3 -14 -1 -14 -8z"/> <path d="M2886 1385 c-9 -26 -7 -32 5 -12 6 10 9 21 6 23 -2 3 -7 -2 -11 -11z"/> <path d="M3037 339 c7 -7 15 -10 18 -7 3 3 -2 9 -12 12 -14 6 -15 5 -6 -5z"/> <path d="M2988 333 c6 -2 18 -2 25 0 6 3 1 5 -13 5 -14 0 -19 -2 -12 -5z"/> <path d="M3402 324 c-7 -8 -8 -14 -3 -14 10 0 25 19 20 25 -2 1 -10 -3 -17 -11z"/> <path d="M3705 330 c-3 -5 -1 -10 4 -10 6 0 11 5 11 10 0 6 -2 10 -4 10 -3 0 -8 -4 -11 -10z"/> <path d="M511 554 c0 -11 3 -14 6 -6 3 7 2 16 -1 19 -3 4 -6 -2 -5 -13z"/> <path d="M570 356 c0 -2 7 -7 16 -10 8 -3 12 -2 9 4 -6 10 -25 14 -25 6z"/> <path d="M1638 203 c7 -3 16 -2 19 1 4 3 -2 6 -13 5 -11 0 -14 -3 -6 -6z"/> <path d="M2138 173 c7 -3 16 -2 19 1 4 3 -2 6 -13 5 -11 0 -14 -3 -6 -6z"/> <path d="M2368 423 c7 -3 16 -2 19 1 4 3 -2 6 -13 5 -11 0 -14 -3 -6 -6z"/> <path d="M1595 2974 c-521 -70 -983 -226 -1455 -493 -135 -76 -147 -91 -29 -37 229 105 586 209 892 258 199 32 502 32 647 -1 203 -45 339 -134 398 -259 24 -51 27 -68 26 -157 -2 -119 -24 -190 -100 -316 -151 -251 -447 -516 -834 -749 -179 -108 -490 -257 -654 -314 -10 -4 -17 -8 -15 -10 2 -2 77 15 166 39 521 138 1029 387 1406 688 134 107 327 302 399 402 138 195 200 378 178 525 -32 202 -179 330 -460 401 -72 18 -119 22 -310 24 -124 2 -238 1 -255 -1z m489 -34 c32 -6 66 -12 76 -13 14 -1 16 -5 9 -18 -8 -16 -7 -16 21 -3 26 13 32 13 50 1 11 -7 18 -16 16 -18 -2 -2 8 -5 24 -6 15 -1 48 -11 73 -23 56 -26 147 -101 142 -117 -2 -7 1 -10 8 -8 18 7 77 -101 77 -140 0 -18 7 -38 15 -45 11 -9 12 -16 4 -26 -6 -7 -8 -18 -4 -24 3 -5 -1 -10 -9 -10 -21 0 -20 -17 0 -28 13 -7 15 -16 8 -43 -4 -19 -8 -38 -9 -44 0 -5 -5 -9 -11 -8 -6 1 -9 -13 -8 -30 4 -48 -30 -117 -54 -112 -11 2 -19 -2 -19 -11 0 -10 4 -11 13 -3 7 5 14 6 17 2 7 -12 -18 -44 -28 -35 -5 4 -5 -1 -2 -10 3 -10 -1 -24 -9 -32 -8 -9 -14 -18 -14 -21 1 -3 -8 -18 -19 -33 -16 -21 -23 -24 -29 -14 -8 11 -10 11 -15 -2 -4 -9 -3 -15 1 -13 4 1 7 -2 7 -8 0 -5 -3 -9 -7 -8 -5 2 -8 -3 -8 -11 0 -17 -38 -66 -51 -66 -6 0 -7 5 -3 12 4 7 3 8 -4 4 -9 -5 -9 -13 -2 -26 7 -13 7 -21 -2 -26 -7 -5 -8 -3 -3 7 5 8 -17 -13 -48 -45 -31 -33 -53 -64 -50 -69 3 -6 1 -7 -5 -3 -7 4 -12 2 -12 -4 0 -7 -7 -10 -15 -7 -8 4 -17 2 -20 -4 -4 -5 -11 -6 -17 -3 -7 4 -8 2 -4 -5 6 -9 12 -9 24 1 10 7 4 -2 -12 -20 -16 -17 -34 -29 -39 -25 -6 3 -7 1 -3 -5 3 -5 -13 -25 -36 -43 -24 -19 -54 -45 -67 -59 -13 -14 -20 -19 -17 -12 11 20 0 14 -34 -18 -18 -16 -37 -27 -44 -23 -6 3 -8 3 -4 -1 9 -11 -28 -50 -40 -42 -13 7 -34 -18 -24 -29 4 -5 1 -5 -5 -1 -7 4 -13 2 -13 -4 0 -6 -4 -9 -8 -6 -5 3 -16 -4 -25 -14 -10 -12 -23 -17 -33 -13 -12 4 -15 3 -10 -5 4 -7 3 -12 -2 -12 -4 0 -17 -8 -28 -17 -10 -10 -28 -25 -39 -33 -17 -13 -18 -13 -10 0 6 11 3 10 -12 -2 -11 -10 -25 -18 -31 -18 -7 0 -12 -4 -12 -10 0 -5 -6 -10 -12 -10 -7 0 -24 -9 -37 -19 -14 -10 -31 -16 -40 -13 -9 3 -12 1 -7 -6 5 -8 -2 -12 -21 -13 -15 0 -22 -3 -14 -6 14 -6 -66 -49 -81 -45 -5 1 -8 -2 -8 -7 0 -10 -39 -27 -52 -23 -5 1 -8 -3 -8 -10 0 -6 -3 -9 -6 -5 -4 3 -13 0 -21 -8 -8 -8 -20 -15 -26 -15 -7 0 -6 4 3 10 18 12 2 12 -25 0 -11 -5 -14 -9 -7 -9 7 -1 11 -5 7 -11 -3 -5 -13 -6 -22 -3 -11 4 -14 3 -9 -6 5 -8 3 -12 -5 -10 -29 3 -50 -1 -44 -11 3 -5 3 -11 -2 -11 -58 -8 -64 -8 -53 6 8 10 8 15 -1 21 -7 4 -9 3 -5 -4 3 -6 2 -13 -3 -17 -6 -3 -8 -12 -4 -20 4 -11 1 -13 -11 -9 -9 3 -16 1 -16 -5 0 -9 -5 -9 -21 0 -12 6 -19 7 -15 1 9 -14 -40 -43 -60 -35 -12 4 -15 3 -10 -5 4 -7 1 -13 -8 -13 -19 -2 -20 -2 -76 -19 -25 -7 -52 -18 -60 -24 -13 -10 -13 -9 -1 7 7 9 20 17 27 17 8 0 14 4 14 9 0 5 6 9 13 8 32 -1 47 4 45 16 -2 7 5 11 16 9 12 -2 16 1 11 9 -5 7 -3 10 6 7 8 -3 20 2 27 9 11 11 17 11 28 2 11 -9 13 -9 9 2 -7 17 50 53 67 43 6 -4 8 -3 5 3 -4 6 2 18 13 28 19 17 21 17 38 2 10 -10 22 -17 27 -17 5 0 1 6 -10 13 -10 8 -15 19 -11 25 9 15 67 43 76 37 4 -3 11 2 14 10 3 8 10 14 15 13 11 -3 60 34 103 79 19 20 36 29 46 26 10 -4 13 -2 8 5 -5 9 3 11 28 10 25 -2 35 -7 31 -16 -3 -7 -1 -11 4 -8 4 3 8 20 8 38 1 31 0 31 -10 11 -10 -23 -27 -31 -27 -14 0 14 29 41 44 41 6 0 18 -6 26 -13 8 -6 7 -3 -3 9 -23 27 -11 37 22 17 20 -11 22 -12 9 0 -22 18 -23 31 -2 23 8 -3 12 -2 9 4 -7 11 29 32 39 22 4 -3 4 1 1 10 -9 22 27 42 45 25 12 -10 12 -9 1 5 -11 14 -9 21 7 39 12 12 25 18 33 14 8 -6 10 -4 4 5 -6 10 -4 12 8 7 11 -4 14 -2 10 9 -3 7 -1 14 4 14 4 0 26 23 48 50 22 28 48 53 58 56 9 3 15 9 12 14 -11 18 17 21 43 4 22 -14 24 -14 14 -2 -11 14 -10 19 8 31 20 14 20 15 1 20 -13 3 -18 1 -15 -8 3 -7 1 -16 -5 -20 -19 -11 -12 26 9 52 11 14 20 21 20 14 0 -6 5 -11 11 -11 6 0 8 7 5 16 -8 22 4 40 16 23 7 -10 8 -8 5 9 -6 27 39 102 61 102 9 0 13 7 9 19 -2 11 3 32 12 48 31 51 54 155 55 245 1 47 -2 84 -6 82 -5 -3 -8 3 -8 13 0 10 -9 36 -21 57 -11 21 -16 35 -10 32 5 -4 7 3 3 16 -3 14 -1 19 6 14 8 -5 10 -1 5 10 -5 14 -8 13 -19 -7 l-12 -24 -10 26 c-6 15 -18 29 -27 33 -11 4 -15 12 -11 22 5 14 4 15 -9 4 -13 -11 -14 -10 -10 2 4 11 -2 18 -20 22 -14 4 -23 11 -20 16 3 6 -1 7 -9 4 -11 -4 -16 0 -16 11 0 9 -4 14 -9 11 -4 -3 -35 7 -68 23 -69 34 -162 61 -220 65 -11 0 -19 4 -18 7 2 3 -16 5 -40 4 -25 -1 -43 1 -41 4 2 3 -24 6 -57 7 -34 0 -75 4 -90 8 -17 4 -26 3 -23 -2 7 -11 -49 -10 -60 1 -4 4 -1 7 6 7 7 0 11 2 8 5 -8 9 -38 -6 -32 -16 3 -5 -28 -10 -68 -10 -73 -2 -99 -4 -108 -9 -3 -1 -21 -4 -41 -5 -20 -2 -64 -9 -97 -15 -33 -6 -64 -10 -69 -9 -4 1 -20 -3 -35 -9 -15 -6 -36 -9 -47 -7 -12 2 -21 0 -21 -6 0 -5 -13 -9 -28 -9 -15 0 -52 -7 -82 -16 -30 -8 -64 -16 -75 -17 -11 -1 -23 -6 -26 -11 -4 -4 -28 -12 -55 -17 -27 -5 -51 -14 -53 -20 -2 -8 -6 -8 -11 1 -5 8 -11 7 -24 -5 -9 -9 -16 -13 -16 -9 0 3 -7 1 -15 -6 -9 -7 -15 -8 -15 -2 0 11 60 42 82 42 7 0 26 9 42 19 16 11 35 17 42 14 8 -3 14 0 14 6 0 6 3 10 8 9 8 -1 28 6 87 32 22 10 67 28 100 40 33 12 65 26 72 32 7 5 17 7 23 3 5 -3 10 0 10 7 0 9 3 9 10 -2 5 -8 10 -10 10 -4 0 14 167 67 187 60 8 -3 12 -2 9 2 -5 8 75 33 124 38 57 7 76 11 88 18 7 4 20 5 28 2 9 -4 12 -2 8 5 -4 6 1 10 12 8 11 -1 26 1 34 4 8 4 33 8 55 11 22 2 76 9 120 15 44 6 100 13 125 14 84 7 355 -2 414 -13z m-1714 -368 c0 -4 -10 -9 -22 -9 -18 -2 -20 0 -8 7 18 12 30 13 30 2z"/> <path d="M2216 2885 c-3 -8 -1 -17 3 -20 5 -3 11 2 15 10 3 8 1 17 -3 20 -5 3 -11 -2 -15 -10z"/> <path d="M2180 2880 c-9 -6 -10 -10 -3 -10 6 0 15 5 18 10 8 12 4 12 -15 0z"/> <path d="M2085 2830 c-3 -6 1 -7 9 -4 18 7 21 14 7 14 -6 0 -13 -4 -16 -10z"/> <path d="M1078 2813 c7 -3 16 -2 19 1 4 3 -2 6 -13 5 -11 0 -14 -3 -6 -6z"/> <path d="M1305 2800 c-3 -5 -1 -10 4 -10 6 0 11 5 11 10 0 6 -2 10 -4 10 -3 0 -8 -4 -11 -10z"/> <path d="M2061 2796 c-10 -12 -8 -13 8 -9 12 3 18 9 15 14 -7 12 -10 11 -23 -5z"/> <path d="M2095 2770 c3 -5 8 -10 11 -10 2 0 4 5 4 10 0 6 -5 10 -11 10 -5 0 -7 -4 -4 -10z"/> <path d="M2060 2760 c-9 -6 -10 -10 -3 -10 6 0 15 5 18 10 8 12 4 12 -15 0z"/> <path d="M2082 2733 c-6 -2 -10 -9 -7 -13 7 -11 35 -2 35 11 0 10 -8 10 -28 2z"/> <path d="M1824 2686 c11 -9 24 -16 30 -16 12 0 7 5 -24 19 -24 11 -24 11 -6 -3z"/> <path d="M2544 2528 c-19 -23 -19 -23 2 -5 11 9 24 14 27 10 4 -3 7 -1 7 5 0 19 -15 14 -36 -10z"/> <path d="M2525 2460 c3 -5 11 -10 16 -10 6 0 7 5 4 10 -3 6 -11 10 -16 10 -6 0 -7 -4 -4 -10z"/> <path d="M2451 2434 c0 -11 3 -14 6 -6 3 7 2 16 -1 19 -3 4 -6 -2 -5 -13z"/> <path d="M2497 2429 c7 -7 15 -10 18 -7 3 3 -2 9 -12 12 -14 6 -15 5 -6 -5z"/> <path d="M2519 2400 c-13 -10 -19 -19 -13 -20 6 0 19 9 29 20 23 26 14 26 -16 0z"/> <path d="M2370 2359 c0 -5 5 -7 10 -4 6 3 10 8 10 11 0 2 -4 4 -10 4 -5 0 -10 -5 -10 -11z"/> <path d="M2400 2350 c0 -5 5 -10 11 -10 5 0 7 5 4 10 -3 6 -8 10 -11 10 -2 0 -4 -4 -4 -10z"/> <path d="M2418 2323 c7 -3 16 -2 19 1 4 3 -2 6 -13 5 -11 0 -14 -3 -6 -6z"/> <path d="M2390 2301 c0 -6 4 -13 10 -16 6 -3 7 1 4 9 -7 18 -14 21 -14 7z"/> <path d="M2065 2040 c3 -5 8 -10 11 -10 2 0 4 5 4 10 0 6 -5 10 -11 10 -5 0 -7 -4 -4 -10z"/> <path d="M2110 2039 c0 -5 5 -7 10 -4 6 3 10 8 10 11 0 2 -4 4 -10 4 -5 0 -10 -5 -10 -11z"/> <path d="M2108 2003 c6 -2 18 -2 25 0 6 3 1 5 -13 5 -14 0 -19 -2 -12 -5z"/> <path d="M2055 1960 c3 -5 8 -10 11 -10 2 0 4 5 4 10 0 6 -5 10 -11 10 -5 0 -7 -4 -4 -10z"/> <path d="M2030 1930 c0 -5 5 -10 10 -10 6 0 10 5 10 10 0 6 -4 10 -10 10 -5 0 -10 -4 -10 -10z"/> <path d="M1975 1920 c-3 -6 1 -7 9 -4 18 7 21 14 7 14 -6 0 -13 -4 -16 -10z"/> <path d="M1846 1544 c-5 -14 -4 -15 9 -4 17 14 19 20 6 20 -5 0 -12 -7 -15 -16z"/> <path d="M1405 1360 c-3 -5 -1 -10 4 -10 6 0 11 5 11 10 0 6 -2 10 -4 10 -3 0 -8 -4 -11 -10z"/> <path d="M1477 1363 c-4 -3 -7 -11 -7 -17 0 -6 5 -5 12 2 6 6 9 14 7 17 -3 3 -9 2 -12 -2z"/> <path d="M1424 1337 c-4 -6 -4 -9 1 -5 4 4 14 3 22 -4 7 -6 15 -9 18 -7 2 3 -4 10 -15 17 -15 9 -21 9 -26 -1z"/> <path d="M1351 1296 c-9 -10 -8 -15 4 -20 8 -3 15 -12 15 -20 0 -10 6 -13 15 -9 13 5 12 8 -5 20 -12 8 -19 21 -16 29 7 18 2 18 -13 0z"/> <path d="M1423 1303 c-18 -7 -16 -20 3 -27 9 -4 13 -2 8 5 -4 6 0 15 7 20 15 9 2 11 -18 2z"/> <path d="M1314 1258 c-4 -7 -4 -10 1 -6 4 4 14 3 22 -4 7 -6 16 -8 19 -5 3 3 -3 10 -15 16 -15 8 -22 8 -27 -1z"/> <path d="M1278 1233 c7 -3 16 -2 19 1 4 3 -2 6 -13 5 -11 0 -14 -3 -6 -6z"/> <path d="M1195 1220 c-3 -6 1 -7 9 -4 18 7 21 14 7 14 -6 0 -13 -4 -16 -10z"/> <path d="M620 2770 c-9 -6 -10 -10 -3 -10 6 0 15 5 18 10 8 12 4 12 -15 0z"/> <path d="M1495 2619 c-4 -6 -5 -12 -2 -15 2 -3 7 2 10 11 7 17 1 20 -8 4z"/> <path d="M1402 2568 c-39 -17 -41 -21 -30 -41 6 -12 41 -95 78 -183 l66 -162 24 14 c14 7 33 13 44 14 11 0 16 5 13 13 -3 6 -35 84 -72 172 -37 88 -70 167 -73 176 -6 14 -11 14 -50 -3z m46 -52 c13 -22 17 -37 10 -44 -6 -6 -6 -12 3 -17 8 -5 10 -4 5 3 -4 7 -5 12 -1 12 5 0 23 -40 29 -65 2 -5 8 -23 14 -38 7 -16 12 -34 12 -42 0 -8 4 -16 10 -20 5 -3 7 -12 3 -20 -3 -9 1 -15 10 -15 20 0 27 -22 12 -37 -17 -16 -37 0 -29 22 5 12 4 16 -3 12 -14 -9 -55 86 -47 108 4 10 2 15 -6 13 -7 -2 -14 7 -16 20 -3 16 0 21 8 16 7 -4 8 -3 4 4 -4 6 -12 9 -20 6 -7 -3 -13 1 -14 8 -1 27 -12 61 -22 74 -12 13 -6 34 10 34 4 0 17 -15 28 -34z"/> <path d="M1465 2400 c-3 -6 1 -7 9 -4 18 7 21 14 7 14 -6 0 -13 -4 -16 -10z"/> <path d="M1660 2551 c-48 -25 -80 -75 -80 -124 0 -49 35 -114 72 -133 61 -31 172 -5 216 51 28 36 28 38 -10 53 -27 10 -33 9 -44 -7 -18 -26 -69 -44 -100 -37 -41 11 -25 26 66 62 46 19 88 38 92 42 12 12 -41 88 -69 101 -37 17 -104 13 -143 -8z m112 -16 c5 -6 8 -4 8 4 0 9 7 6 20 -9 11 -13 20 -19 20 -14 0 5 5 1 11 -8 7 -12 7 -24 0 -35 -6 -10 -11 -12 -11 -5 0 6 -4 12 -10 12 -5 0 -7 -8 -4 -17 5 -15 4 -15 -4 -3 -6 8 -8 18 -6 22 3 5 -3 16 -12 26 -27 26 -93 21 -127 -11 -17 -15 -24 -28 -17 -32 6 -3 8 -10 5 -15 -3 -5 -2 -18 4 -28 13 -25 -4 -54 -19 -32 -5 8 -10 11 -10 5 0 -19 15 -32 30 -26 8 3 15 13 15 21 0 8 9 16 20 17 15 2 16 1 5 -5 -8 -4 -16 -19 -18 -33 -2 -22 3 -28 25 -34 43 -12 63 -13 56 -2 -4 6 0 8 10 4 9 -3 19 -2 22 3 3 5 12 7 21 3 9 -3 14 0 12 8 -2 8 3 13 10 12 6 -2 12 2 12 8 0 5 5 7 11 3 11 -6 -50 -56 -74 -60 -7 -1 -19 -5 -28 -9 -10 -3 -20 -2 -24 4 -3 6 -11 11 -16 11 -6 0 -8 -4 -5 -9 4 -5 -4 -7 -16 -3 -21 5 -21 6 -2 14 15 7 14 8 -8 5 -20 -3 -28 0 -28 11 0 8 -3 13 -6 9 -15 -15 -36 27 -37 73 -1 42 3 54 28 80 16 16 37 30 47 30 10 0 18 4 18 9 0 12 63 8 72 -4z m-2 -50 c10 -12 7 -16 -16 -25 -16 -6 -42 -18 -58 -26 -36 -18 -36 -18 -36 3 0 47 81 83 110 48z"/> <path d="M1248 2509 c-22 -13 -24 -62 -2 -79 11 -10 23 -11 41 -4 37 13 50 37 35 68 -12 28 -43 34 -74 15z m50 -34 c10 -10 -14 -26 -30 -20 -22 9 -18 34 5 29 11 -2 22 -6 25 -9z"/> <path d="M1310 2404 c-19 -8 -36 -17 -38 -19 -3 -2 19 -63 48 -134 l53 -130 38 20 c22 11 39 22 39 24 0 5 -100 248 -104 252 0 1 -17 -5 -36 -13z m40 -35 c0 -5 -5 -9 -12 -9 -6 0 -1 -11 12 -24 13 -15 20 -31 16 -41 -3 -9 -2 -14 3 -11 5 3 14 -9 21 -27 6 -17 16 -40 21 -49 6 -12 4 -22 -7 -33 -20 -19 -25 -19 -17 2 4 11 3 14 -5 9 -7 -4 -12 -5 -12 -2 0 2 -3 12 -6 20 -4 11 -2 15 7 13 8 -2 10 -2 6 1 -4 2 -3 10 2 16 8 9 7 13 -4 13 -8 0 -12 -4 -9 -9 3 -4 2 -8 -3 -8 -4 1 -20 28 -35 61 -21 46 -25 65 -18 80 10 18 40 17 40 -2z"/> <path d="M930 2374 c-19 -8 -36 -16 -37 -18 -2 -2 28 -80 67 -174 38 -94 70 -176 70 -183 0 -6 7 -8 16 -5 9 3 27 9 40 12 18 5 23 11 19 24 -5 15 0 17 38 13 80 -9 143 53 140 138 -5 128 -146 194 -231 109 l-29 -28 -23 56 c-13 31 -26 60 -29 64 -3 4 -22 0 -41 -8z m25 -24 c-3 -5 -1 -10 6 -10 8 0 5 -9 -7 -22 -10 -13 -12 -17 -4 -10 20 17 35 15 20 -3 -11 -13 -10 -14 2 -10 12 5 15 -1 14 -26 -1 -18 -8 -35 -15 -37 -8 -3 -11 0 -7 6 3 6 1 12 -4 14 -6 2 -13 12 -15 23 -2 11 -4 21 -5 23 -10 12 3 62 16 62 3 0 2 -4 -1 -10z m192 -53 c-3 -7 3 -13 13 -13 10 0 16 4 14 8 -7 11 1 10 31 -4 24 -11 24 -12 9 -30 -18 -19 -40 -25 -29 -8 6 10 -50 27 -68 22 -5 -1 -6 2 -2 8 11 18 -2 10 -37 -22 -41 -40 -50 -61 -38 -92 7 -19 5 -28 -10 -41 -18 -16 -19 -16 -26 11 -3 16 -13 39 -20 51 -13 20 -12 25 6 43 11 11 15 20 8 20 -6 0 -8 3 -5 6 4 4 13 2 20 -5 11 -9 17 -8 27 4 7 8 19 15 27 15 8 0 11 5 8 10 -4 6 -3 10 2 9 4 -1 15 0 23 4 16 6 43 15 49 16 2 1 1 -5 -2 -12z m89 -53 c-3 -8 -2 -12 4 -9 11 7 12 1 14 -67 1 -30 -5 -49 -18 -62 -26 -26 -89 -48 -97 -34 -4 7 -9 6 -14 -2 -6 -9 -10 -9 -16 1 -7 11 -9 10 -9 -4 0 -10 -4 -15 -10 -12 -5 3 -10 -2 -10 -12 0 -15 -2 -15 -9 -3 -6 8 -7 18 -4 24 3 5 1 6 -5 2 -6 -4 -9 -13 -5 -21 3 -8 0 -15 -7 -15 -6 0 -8 5 -5 10 3 6 1 10 -6 10 -7 0 -9 3 -6 7 4 3 2 12 -3 18 -12 15 -4 41 15 49 8 3 17 0 21 -6 4 -6 3 -8 -2 -5 -6 3 -15 -2 -21 -11 -9 -16 -5 -18 52 -17 39 1 70 7 81 16 16 12 17 12 11 -3 -4 -12 -2 -15 8 -12 8 3 11 13 8 21 -4 11 -2 14 5 9 8 -5 10 -1 5 10 -3 10 -2 15 3 12 5 -4 8 15 6 43 -2 27 -8 46 -13 43 -13 -8 -11 10 3 24 17 17 31 15 24 -4z m-81 0 c43 -17 54 -103 15 -124 -77 -41 -151 57 -84 109 28 22 42 25 69 15z"/> <path d="M1828 2231 c-21 -10 -40 -20 -43 -23 -3 -3 8 -34 23 -69 16 -35 32 -72 35 -82 6 -15 10 -15 26 -5 16 10 18 16 9 32 -9 16 -7 22 7 31 48 28 65 48 65 74 0 57 -52 75 -122 42z m80 -43 c2 -10 -8 -23 -26 -32 -28 -14 -30 -14 -41 10 -14 32 -14 32 7 37 31 9 57 2 60 -15z"/> <path d="M729 2167 c-52 -28 -89 -78 -89 -122 0 -78 73 -155 145 -155 40 1 104 31 134 63 32 35 39 109 14 157 -40 77 -123 100 -204 57z m111 -7 c16 -10 23 -50 9 -50 -5 0 -9 4 -9 9 0 5 -7 12 -16 15 -8 3 -12 2 -9 -4 4 -7 -3 -7 -19 0 -14 5 -26 6 -26 1 0 -4 -7 -8 -15 -8 -17 0 -18 6 -6 26 5 7 13 11 17 9 5 -3 18 -2 29 3 27 10 28 10 45 -1z m-110 -30 c0 -5 -4 -10 -10 -10 -5 0 -10 5 -10 10 0 6 5 10 10 10 6 0 10 -4 10 -10z m168 -2 c8 -8 8 -16 0 -32 -10 -19 -10 -20 5 -7 18 15 17 18 21 -51 1 -16 -2 -28 -6 -28 -4 0 -7 -3 -7 -7 3 -19 -2 -33 -12 -33 -5 0 -7 5 -3 12 4 7 3 8 -4 4 -8 -5 -12 1 -12 14 0 12 4 19 9 16 11 -7 9 27 -2 35 -4 3 -9 15 -10 27 0 11 -5 18 -9 16 -6 -4 -5 21 1 44 2 6 18 1 29 -10z m-165 -18 c7 0 6 -4 -3 -9 -8 -6 -17 -8 -20 -6 -3 2 -6 -13 -8 -32 -2 -34 24 -93 41 -93 4 0 5 -5 1 -12 -5 -8 -2 -9 10 -5 9 4 15 3 12 -2 -3 -4 12 -8 34 -8 22 0 37 4 34 8 -3 5 2 6 11 3 10 -4 15 -2 13 7 -4 17 24 19 29 2 3 -7 -7 -15 -21 -19 -14 -3 -26 -10 -26 -15 0 -5 -7 -5 -17 -2 -10 4 -14 2 -9 -5 4 -7 -1 -9 -16 -6 -13 3 -30 7 -38 8 -44 9 -62 22 -75 53 -19 45 -19 62 1 84 12 13 12 19 3 25 -7 4 -10 3 -6 -3 4 -6 0 -13 -8 -17 -20 -7 -19 0 3 29 9 14 23 22 30 20 8 -3 19 -5 25 -5z m107 -20 c28 -28 27 -84 -2 -104 -12 -9 -32 -16 -44 -16 -27 0 -64 44 -64 76 0 31 33 64 65 64 14 0 34 -9 45 -20z"/> <path d="M696 1978 c3 -5 10 -6 15 -3 13 9 11 12 -6 12 -8 0 -12 -4 -9 -9z"/> <path d="M1618 2144 c-35 -18 -48 -43 -48 -89 0 -81 101 -115 162 -55 27 28 30 36 25 73 -10 74 -74 107 -139 71z m88 -49 c29 -45 -4 -96 -56 -86 -38 6 -52 61 -23 93 23 26 59 23 79 -7z"/> <path d="M1452 2071 c-11 -7 -11 -14 1 -44 15 -34 14 -35 -6 -40 -12 -2 -30 -8 -39 -12 -12 -5 -18 -3 -18 7 0 26 -26 52 -42 42 -13 -8 -10 -20 19 -90 29 -68 38 -81 54 -77 23 6 24 15 4 53 -15 28 -14 29 21 40 19 7 36 10 38 8 1 -1 7 -15 13 -30 9 -20 17 -25 32 -21 12 3 21 6 21 7 0 10 -71 161 -77 163 -4 2 -14 -1 -21 -6z"/> <path d="M443 2051 c-24 -11 -48 -31 -54 -45 -10 -21 -15 -23 -39 -14 -37 12 -96 -12 -112 -46 -10 -23 -12 -24 -23 -10 -10 15 -14 15 -43 0 -18 -9 -32 -18 -32 -20 0 -2 21 -53 46 -112 25 -60 48 -117 51 -126 5 -16 8 -16 47 -1 51 20 51 20 39 35 -6 7 -22 45 -38 84 -31 81 -25 114 20 114 29 0 43 -20 81 -112 l27 -66 42 16 42 15 -35 84 c-30 71 -33 87 -24 108 15 32 56 34 76 3 8 -13 26 -53 41 -89 l26 -66 43 15 43 16 -39 90 c-21 50 -49 101 -61 113 -32 32 -74 37 -124 14z m72 -11 c-3 -5 3 -10 15 -10 11 0 23 -7 26 -15 4 -8 10 -13 14 -10 4 3 7 -9 6 -25 -1 -17 2 -30 7 -30 5 0 7 -7 3 -15 -3 -8 0 -14 7 -12 7 1 11 -4 9 -10 -1 -7 1 -13 5 -13 5 0 9 -13 10 -29 2 -22 -2 -28 -15 -26 -9 1 -16 8 -14 14 1 6 -3 11 -9 11 -5 0 -7 4 -4 10 3 5 -1 23 -10 40 -8 16 -13 30 -11 30 2 0 -8 13 -24 28 -40 41 -72 36 -110 -14 -23 -33 -27 -43 -16 -47 8 -3 13 -16 12 -31 -2 -14 0 -23 5 -21 4 3 10 1 13 -4 4 -5 1 -13 -5 -17 -9 -5 -7 -11 6 -21 17 -12 17 -13 -9 -13 -15 0 -25 4 -21 10 3 6 1 10 -5 10 -6 0 -8 5 -5 10 3 6 1 10 -4 10 -6 0 -11 5 -11 11 0 5 6 7 13 4 6 -4 3 1 -7 9 -18 15 -15 21 8 17 5 -1 3 6 -4 16 -22 28 -24 29 -17 11 4 -12 2 -15 -8 -12 -7 3 -16 16 -19 29 -4 16 -13 23 -25 22 -11 0 -17 -5 -15 -9 3 -5 9 -6 14 -3 5 3 11 1 15 -5 4 -6 -6 -8 -27 -6 -18 3 -37 5 -41 5 -5 1 -5 6 -1 12 4 8 9 7 15 -2 7 -11 9 -10 9 3 0 15 7 17 40 13 41 -5 80 10 80 32 0 6 5 15 12 19 7 4 8 3 4 -4 -4 -7 -2 -12 3 -12 6 0 11 6 11 14 0 8 17 18 38 24 20 5 38 10 40 11 2 1 0 -3 -3 -9z m-259 -125 c-1 -8 -5 -18 -9 -21 -12 -13 -7 -58 12 -99 10 -22 16 -46 14 -52 -3 -7 -1 -13 5 -13 5 0 9 -7 9 -16 0 -12 -5 -10 -19 7 l-19 24 11 -23 c6 -13 9 -26 6 -29 -7 -8 -49 87 -48 110 0 9 -3 17 -8 17 -4 0 -15 18 -24 40 -18 45 -21 63 -6 40 7 -12 10 -12 10 -1 0 7 6 11 14 8 8 -3 22 1 33 8 23 18 22 18 19 0z m201 -130 c0 -9 -8 -13 -21 -11 -29 4 -32 26 -3 26 14 0 24 -6 24 -15z"/> <path d="M520 1996 c0 -3 9 -10 20 -16 11 -6 20 -8 20 -6 0 3 -9 10 -20 16 -11 6 -20 8 -20 6z"/> <path d="M396 1964 c-23 -23 -20 -30 4 -9 11 10 20 20 20 22 0 7 -9 2 -24 -13z"/> <path d="M226 1803 c-6 -14 -5 -15 5 -6 7 7 10 15 7 18 -3 3 -9 -2 -12 -12z"/> <path d="M1188 1954 c-33 -17 -46 -57 -27 -80 10 -13 25 -15 66 -11 29 3 55 2 58 -3 9 -15 -25 -40 -55 -40 -23 0 -40 -15 -40 -36 0 -10 64 -2 91 12 79 40 43 128 -42 104 -22 -7 -37 -6 -44 1 -13 14 20 39 52 39 14 0 23 6 23 15 0 20 -46 19 -82 -1z"/> <path d="M1766 1817 c3 -10 9 -15 12 -12 3 3 0 11 -7 18 -10 9 -11 8 -5 -6z"/> <path d="M1055 1812 c-10 -8 -43 -23 -185 -83 -41 -17 -98 -42 -125 -54 -28 -13 -114 -50 -190 -83 -206 -89 -225 -98 -219 -104 3 -3 22 3 42 13 31 16 98 45 257 114 17 7 51 22 77 34 26 12 49 21 52 21 3 0 39 15 78 34 40 19 109 49 153 67 84 34 109 49 84 49 -8 0 -19 -4 -24 -8z"/> <path d="M1330 1800 c-9 -6 -10 -10 -3 -10 6 0 15 5 18 10 8 12 4 12 -15 0z"/> <path d="M1540 1571 c0 -6 4 -13 10 -16 6 -3 7 1 4 9 -7 18 -14 21 -14 7z"/> <path d="M1961 998 c-54 -27 -96 -84 -111 -151 -16 -72 9 -147 63 -191 34 -27 47 -31 101 -31 51 0 70 5 104 27 61 41 97 108 97 185 0 52 -4 68 -30 104 -56 78 -139 99 -224 57z m149 -26 c49 -26 83 -93 76 -150 -13 -96 -69 -159 -153 -168 -66 -7 -111 17 -140 76 -29 55 -29 88 -1 152 39 92 137 132 218 90z"/> <path d="M1976 885 c-55 -51 -24 -155 46 -155 39 0 74 25 87 62 16 44 14 53 -15 87 -33 40 -79 42 -118 6z m98 -21 c22 -21 20 -56 -4 -82 -27 -28 -65 -28 -84 0 -21 29 -20 40 5 72 23 29 60 34 83 10z"/> <path d="M1944 725 c1 -8 8 -21 16 -28 12 -10 12 -9 2 4 -6 9 -9 18 -6 21 3 3 1 9 -4 12 -6 3 -9 -1 -8 -9z"/> <path d="M2413 994 c-104 -51 -151 -178 -104 -279 25 -54 57 -81 111 -96 159 -41 297 150 217 302 -42 79 -144 112 -224 73z m143 -30 c69 -33 96 -141 56 -220 -64 -125 -216 -138 -274 -23 -34 66 -15 161 44 216 47 44 115 55 174 27z"/> <path d="M2419 871 c-38 -38 -40 -91 -4 -126 54 -55 145 -9 145 72 0 80 -83 111 -141 54z m89 -7 c45 -31 17 -114 -38 -114 -52 0 -67 64 -25 105 28 29 33 30 63 9z"/> </g> </svg>