<?xml version="1.0" standalone="no"?> <!DOCTYPE svg PUBLIC "-//W3C//DTD SVG 20010904//EN" "http://www.w3.org/TR/2001/REC-SVG-20010904/DTD/svg10.dtd"> <svg version="1.0" xmlns="http://www.w3.org/2000/svg" width="600.000000pt" height="600.000000pt" viewBox="0 0 600.000000 600.000000" preserveAspectRatio="xMidYMid meet"> <g transform="translate(0.000000,600.000000) scale(0.100000,-0.100000)" fill="#f24a00" stroke="none"> <path d="M3038 5515 c-7 -7 -166 -54 -353 -104 -387 -105 -432 -122 -469 -178 -45 -68 -44 -109 9 -301 l48 -170 40 4 c50 5 53 8 39 37 -6 12 -20 56 -31 97 -10 41 -27 101 -36 133 -40 139 4 186 231 242 l111 27 47 -20 c31 -14 50 -30 57 -49 7 -15 18 -41 25 -58 7 -16 15 -43 19 -60 3 -16 11 -46 17 -67 9 -31 7 -43 -12 -82 -23 -49 -41 -61 -34 -23 3 17 1 16 -8 -5 -8 -18 -19 -28 -33 -28 -47 0 -60 -49 -20 -76 30 -19 31 -28 8 -52 -12 -12 -19 -37 -21 -76 -1 -32 -8 -68 -14 -79 -25 -46 -19 -76 16 -75 56 1 62 15 59 133 -2 95 0 112 23 163 33 74 47 106 48 112 3 10 133 278 191 394 58 114 90 156 78 104 -4 -18 -2 -20 6 -8 5 8 13 11 17 7 4 -4 12 -3 18 2 11 9 175 -62 187 -81 3 -5 9 -9 13 -9 6 2 75 -46 86 -60 9 -10 73 -39 87 -39 7 0 12 -5 11 -11 -2 -6 13 -19 32 -30 19 -10 30 -19 25 -19 -6 -1 2 -7 17 -15 14 -8 36 -34 47 -58 17 -35 33 -50 79 -73 31 -15 59 -32 60 -36 2 -4 12 -8 23 -8 20 0 44 -44 33 -61 -3 -5 2 -12 10 -15 9 -3 13 -11 9 -17 -3 -5 -1 -7 4 -4 6 4 22 -8 37 -25 25 -31 26 -39 8 -87 -3 -9 -1 -12 5 -8 7 4 9 0 6 -11 -6 -26 44 -53 58 -32 8 11 9 9 4 -7 -3 -13 -2 -31 4 -40 10 -18 149 253 154 300 3 26 -6 31 -428 228 -321 149 -363 171 -384 203 -46 69 -216 115 -263 71z m-118 -160 c0 -3 -2 -5 -5 -5 -3 0 -5 2 -5 5 0 3 2 5 5 5 3 0 5 -2 5 -5z m-60 -100 c0 -3 -2 -5 -5 -5 -3 0 -5 2 -5 5 0 3 2 5 5 5 3 0 5 -2 5 -5z m37 -52 c-14 -26 -37 -59 -52 -73 l-27 -25 13 30 c7 17 21 38 31 47 10 9 19 21 20 25 0 4 8 18 16 31 25 39 25 16 -1 -35z m-57 42 c0 -3 -2 -5 -5 -5 -3 0 -5 2 -5 5 0 3 2 5 5 5 3 0 5 -2 5 -5z m1010 -250 c0 -3 -2 -5 -5 -5 -3 0 -5 2 -5 5 0 3 2 5 5 5 3 0 5 -2 5 -5z m120 -210 c0 -3 -2 -5 -5 -5 -3 0 -5 2 -5 5 0 3 2 5 5 5 3 0 5 -2 5 -5z"/> <path d="M3120 5450 c0 -7 3 -10 7 -7 3 4 3 10 0 14 -4 3 -7 0 -7 -7z"/> <path d="M3124 5360 c-61 -24 -85 -121 -44 -173 66 -84 200 -35 200 74 0 82 -77 131 -156 99z m43 -97 c-4 -3 -7 0 -7 7 0 7 3 10 7 7 3 -4 3 -10 0 -14z"/> <path d="M3356 5209 c-58 -45 -15 -139 57 -125 44 8 61 29 61 73 0 65 -65 94 -118 52z"/> <path d="M2333 5176 c-81 -69 11 -204 110 -162 68 28 62 142 -8 172 -48 20 -70 18 -102 -10z"/> <path d="M2709 5163 c-13 -16 -12 -17 4 -4 16 13 21 21 13 21 -2 0 -10 -8 -17 -17z"/> <path d="M2615 5118 c-46 -26 -59 -83 -30 -125 9 -12 14 -27 13 -34 -2 -6 3 -14 10 -16 6 -3 12 0 12 6 0 6 13 11 29 11 43 0 60 9 77 42 40 76 -38 158 -111 116z"/> <path d="M3003 5105 c-100 -43 -66 -213 38 -188 21 5 20 2 -11 -25 -30 -26 -41 -30 -76 -25 -63 8 -134 -38 -134 -88 0 -19 77 -29 262 -34 l108 -4 41 35 c82 68 224 134 289 134 39 0 90 -74 121 -175 17 -57 26 -73 39 -70 42 8 74 -300 51 -486 -16 -124 -59 -290 -62 -236 -1 20 -3 42 -4 47 -1 6 -3 13 -4 18 -1 4 -15 -31 -30 -78 -16 -47 -38 -103 -49 -125 -34 -69 -36 -86 -13 -82 22 3 41 17 23 17 -6 0 -10 12 -8 28 1 15 8 26 15 24 7 -1 10 2 6 8 -3 5 3 10 14 10 26 0 26 -5 2 -66 -11 -27 -29 -75 -41 -107 -36 -92 -102 -149 -128 -111 -4 5 -18 10 -32 9 -38 0 -37 18 3 37 20 10 44 29 54 43 10 14 26 35 36 47 25 30 22 36 -25 49 -185 50 -480 -102 -598 -307 -65 -114 -69 -280 -9 -365 10 -15 19 -33 19 -41 0 -8 14 -27 31 -44 17 -16 42 -45 54 -64 40 -61 102 -119 156 -146 123 -62 348 -20 499 94 67 51 70 54 59 74 -8 15 -6 18 15 18 35 0 80 51 122 137 81 166 59 301 -62 385 -45 32 -90 41 -88 18 1 -12 -12 -14 -72 -12 -148 7 -298 -53 -415 -165 -90 -87 -130 -90 -62 -5 21 26 33 44 29 40 -5 -4 -15 0 -23 10 -9 11 -12 11 -7 2 4 -8 -3 -5 -15 7 -11 12 -21 26 -21 31 0 23 150 133 180 131 9 0 6 -4 -7 -9 -13 -5 -23 -12 -23 -15 0 -4 4 -4 9 -1 11 7 23 -22 16 -35 -4 -5 2 -6 11 -2 11 4 15 2 11 -4 -8 -13 19 -10 55 5 84 35 170 54 236 50 68 -3 76 1 59 29 -8 13 21 33 40 26 6 -2 13 3 15 11 6 27 74 -13 112 -67 l34 -48 7 30 c3 17 4 35 0 40 -3 6 0 38 6 73 6 35 12 73 13 86 0 12 4 22 8 22 8 0 75 202 84 255 9 56 26 82 20 30 -3 -22 -8 -71 -11 -110 -4 -38 -13 -126 -21 -195 -18 -160 -20 -245 -6 -345 6 -50 7 -105 2 -145 -28 -215 -44 -288 -67 -297 -7 -3 -10 -10 -6 -15 9 -15 -67 -78 -94 -78 -13 0 -32 -9 -43 -20 -19 -19 -162 -63 -207 -62 -13 0 -23 -4 -23 -8 0 -5 -12 -7 -27 -5 -16 2 -34 -2 -40 -7 -7 -6 -13 -7 -13 -3 0 5 -10 0 -22 -11 -12 -10 -18 -13 -13 -5 6 11 2 12 -21 6 -16 -4 -33 -7 -39 -7 -18 1 -55 11 -67 18 -7 4 -8 3 -4 -4 7 -12 2 -12 -99 9 -27 5 -64 11 -82 12 -18 2 -40 10 -50 19 -22 18 -73 32 -73 19 0 -12 -42 -2 -55 14 -12 14 -118 29 -110 15 4 -6 -4 -10 -17 -10 -18 0 -20 2 -8 10 12 8 11 10 -7 10 -12 0 -24 4 -28 10 -3 5 -12 7 -20 4 -8 -4 -27 -2 -42 3 -29 10 -56 7 -49 -6 9 -15 -74 2 -92 19 -17 17 -22 17 -40 4 -18 -13 -22 -12 -30 1 -10 19 -43 9 -35 -11 3 -10 -2 -14 -19 -14 -28 0 -48 -17 -48 -42 0 -11 -5 -15 -15 -12 -8 4 -15 12 -15 20 0 18 -14 18 -29 0 -10 -11 -9 -16 4 -23 14 -8 13 -11 -5 -28 -11 -10 -20 -22 -20 -27 0 -5 -11 -25 -24 -44 -20 -30 -24 -32 -31 -17 -6 16 -8 14 -22 -10 -8 -16 -16 -27 -19 -25 -14 15 8 1854 25 2047 5 55 14 96 21 101 9 6 9 9 0 15 -7 4 -25 -2 -41 -14 -31 -23 -86 -27 -152 -12 -48 12 -44 34 -57 -264 -6 -137 -17 -356 -25 -485 -8 -129 -26 -467 -40 -750 -14 -283 -30 -571 -34 -640 -10 -147 -19 -131 129 -217 52 -30 108 -63 123 -74 26 -19 35 -19 120 -10 51 6 133 13 182 16 144 9 1048 74 1180 85 66 5 200 15 298 21 l178 12 -6 51 c-3 28 -14 242 -25 476 -25 539 -38 770 -51 940 -6 74 -12 225 -14 335 -3 201 -17 313 -50 405 -19 55 -76 151 -86 145 -3 -3 -18 6 -33 20 -14 13 -42 27 -61 31 -19 3 -32 10 -29 16 3 5 15 6 27 2 12 -3 19 -4 16 0 -3 3 -45 19 -93 36 -56 18 -101 42 -128 64 -91 78 -253 100 -356 47 -47 -24 -70 -28 -54 -8 24 30 -9 110 -54 127 -33 13 -53 12 -91 -5z m54 -82 c-4 -3 -10 -3 -14 0 -3 4 0 7 7 7 7 0 10 -3 7 -7z m10 -30 c-4 -3 -10 -3 -14 0 -3 4 0 7 7 7 7 0 10 -3 7 -7z m660 -140 c-4 -3 -10 -3 -14 0 -3 4 0 7 7 7 7 0 10 -3 7 -7z m-67 -888 c0 -3 -2 -5 -5 -5 -3 0 -5 2 -5 5 0 3 2 5 5 5 3 0 5 -2 5 -5z m20 -100 c0 -3 -2 -5 -5 -5 -3 0 -5 2 -5 5 0 3 2 5 5 5 3 0 5 -2 5 -5z m-10 -30 c0 -3 -2 -5 -5 -5 -3 0 -5 2 -5 5 0 3 2 5 5 5 3 0 5 -2 5 -5z m-90 -70 c0 -3 -2 -5 -5 -5 -3 0 -5 2 -5 5 0 3 2 5 5 5 3 0 5 -2 5 -5z m-340 -170 c0 -3 -2 -5 -5 -5 -3 0 -5 2 -5 5 0 3 2 5 5 5 3 0 5 -2 5 -5z m-20 -21 c0 -8 7 -23 16 -32 16 -15 15 -18 -11 -37 -16 -11 -56 -42 -89 -68 l-61 -48 -21 25 c-12 13 -25 22 -29 18 -4 -4 -3 2 3 13 16 31 83 91 132 119 53 30 60 31 60 10z m430 -59 c0 -3 -2 -5 -5 -5 -3 0 -5 2 -5 5 0 3 2 5 5 5 3 0 5 -2 5 -5z m-650 -10 c0 -3 -2 -5 -5 -5 -3 0 -5 2 -5 5 0 3 2 5 5 5 3 0 5 -2 5 -5z m-923 -82 c-4 -3 -7 0 -7 7 0 7 3 10 7 7 3 -4 3 -10 0 -14z m1572 8 c11 -7 11 -13 0 -32 -7 -13 -12 -25 -11 -26 1 -2 2 -10 2 -19 0 -14 -1 -14 -16 0 -21 21 -21 21 -16 -19 4 -34 4 -34 -26 -25 -23 6 -29 5 -26 -4 7 -19 55 -18 70 1 14 19 18 14 8 -11 -3 -9 -13 -16 -21 -16 -11 0 -13 -7 -9 -24 3 -14 2 -28 -4 -31 -5 -3 -10 1 -10 9 0 10 -9 16 -21 16 -14 0 -19 5 -16 14 3 8 -2 16 -13 19 -11 3 -18 0 -17 -6 1 -7 -12 -10 -36 -8 -26 2 -39 -2 -43 -13 -3 -9 -14 -16 -25 -16 -10 0 -22 -7 -27 -17 -6 -10 -16 -14 -27 -9 -14 5 -16 2 -12 -14 3 -13 1 -18 -6 -13 -19 11 -47 11 -40 -1 13 -20 10 -44 -4 -39 -11 4 -17 -7 -15 -28 1 -4 -7 -5 -17 -2 -15 4 -20 -2 -23 -29 -3 -18 -8 -41 -13 -51 -4 -10 -4 -17 1 -16 23 4 26 -3 10 -20 -10 -11 -24 -17 -32 -14 -8 3 -15 0 -15 -6 -1 -6 -3 -15 -4 -21 -1 -5 -3 -13 -4 -17 0 -4 -8 3 -18 16 -14 20 -18 22 -27 9 -23 -30 -44 -28 -56 5 -7 18 -14 26 -17 19 -3 -7 1 -19 7 -27 9 -11 9 -15 1 -15 -19 0 -23 25 -12 85 40 215 272 402 501 404 36 0 71 -3 79 -8z m-1572 -43 c-3 -8 -6 -5 -6 6 -1 11 2 17 5 13 3 -3 4 -12 1 -19z m1613 -13 c0 -3 -2 -5 -5 -5 -3 0 -5 2 -5 5 0 3 2 5 5 5 3 0 5 -2 5 -5z m-1606 -182 c5 -352 -14 -644 -38 -605 -21 34 -9 429 19 627 1 11 3 49 4 84 2 126 14 49 15 -106z m1587 130 c-8 -15 -10 -15 -11 -2 0 17 10 32 18 25 2 -3 -1 -13 -7 -23z m-751 -38 c0 -3 -2 -5 -5 -5 -3 0 -5 2 -5 5 0 3 2 5 5 5 3 0 5 -2 5 -5z m580 -35 c0 -5 -7 -10 -15 -10 -8 0 -15 5 -15 10 0 6 7 10 15 10 8 0 15 -4 15 -10z m-559 -65 c5 4 9 1 9 -6 0 -7 3 -9 6 -6 4 4 1 14 -6 22 -10 12 -10 19 -2 27 7 7 12 8 13 3 2 -35 12 -60 26 -70 9 -7 13 -17 9 -24 -5 -7 -2 -10 6 -9 8 2 12 -6 10 -22 -1 -14 7 -1 19 28 19 48 40 65 53 43 3 -5 -5 -34 -19 -65 -14 -31 -25 -65 -25 -76 0 -13 -5 -18 -15 -14 -10 4 -15 0 -16 -12 0 -17 -1 -17 -8 1 -8 19 -9 19 -12 -3 -4 -22 -5 -21 -21 10 -18 36 -43 93 -52 121 -3 10 -11 15 -17 12 -7 -5 -9 5 -6 31 2 23 9 38 15 37 7 -2 13 7 14 20 1 12 3 5 5 -16 2 -20 8 -35 14 -32z m594 45 c3 -5 1 -10 -4 -10 -6 0 -11 5 -11 10 0 6 2 10 4 10 3 0 8 -4 11 -10z m-108 -7 c-4 -3 -10 -3 -14 0 -3 4 0 7 7 7 7 0 10 -3 7 -7z m-377 -18 c0 -3 -2 -5 -5 -5 -3 0 -5 2 -5 5 0 3 2 5 5 5 3 0 5 -2 5 -5z m330 -10 c0 -3 -2 -5 -5 -5 -3 0 -5 2 -5 5 0 3 2 5 5 5 3 0 5 -2 5 -5z m50 0 c0 -3 -2 -5 -5 -5 -3 0 -5 2 -5 5 0 3 2 5 5 5 3 0 5 -2 5 -5z m-20 -25 c6 -11 8 -20 6 -20 -3 0 -10 9 -16 20 -6 11 -8 20 -6 20 3 0 10 -9 16 -20z m-55 -10 c8 0 18 -6 22 -14 9 -16 116 -72 156 -82 15 -3 27 -11 27 -18 0 -6 5 -4 10 4 11 18 41 -15 33 -37 -8 -19 -27 -16 -105 17 -38 16 -75 27 -81 23 -5 -3 -7 -2 -4 4 3 5 -10 15 -29 22 -18 7 -34 17 -34 22 0 5 -9 9 -20 9 -23 0 -26 13 -6 30 8 6 14 17 12 23 -1 7 -1 9 1 5 3 -5 11 -8 18 -8z m-25 -75 c0 -3 -2 -5 -5 -5 -3 0 -5 2 -5 5 0 3 2 5 5 5 3 0 5 -2 5 -5z m-23 -22 c-4 -3 -7 0 -7 7 0 7 3 10 7 7 3 -4 3 -10 0 -14z m-17 -8 c0 -3 -2 -5 -5 -5 -3 0 -5 2 -5 5 0 3 2 5 5 5 3 0 5 -2 5 -5z m50 0 c0 -3 -2 -5 -5 -5 -3 0 -5 2 -5 5 0 3 2 5 5 5 3 0 5 -2 5 -5z m-103 -101 c-3 -3 -12 -4 -19 -1 -8 3 -5 6 6 6 11 1 17 -2 13 -5z m-580 -161 c-4 -3 -10 -3 -14 0 -3 4 0 7 7 7 7 0 10 -3 7 -7z m-327 -78 c0 -3 -2 -5 -5 -5 -3 0 -5 2 -5 5 0 3 2 5 5 5 3 0 5 -2 5 -5z m1130 -20 c0 -3 -2 -5 -5 -5 -3 0 -5 2 -5 5 0 3 2 5 5 5 3 0 5 -2 5 -5z m356 -19 c26 -20 27 -105 1 -134 -46 -51 -97 -23 -97 53 0 72 50 114 96 81z m142 -18 c22 -47 -15 -138 -56 -138 -51 0 -71 93 -31 144 28 35 68 32 87 -6z m-471 -4 c47 -47 14 -154 -48 -154 -72 0 -86 142 -16 170 33 13 36 12 64 -16z m137 10 c14 -14 21 -39 17 -69 0 -7 14 -9 35 -7 31 4 35 2 32 -14 -4 -22 -58 -33 -58 -12 0 7 -9 -2 -20 -19 -11 -18 -24 -33 -29 -33 -5 0 -16 -3 -24 -6 -27 -10 -57 32 -57 80 0 76 61 123 104 80z m-345 -20 c12 -15 21 -39 21 -53 0 -25 3 -27 35 -23 27 3 35 1 35 -12 0 -21 -46 -32 -65 -16 -12 10 -15 10 -15 -2 0 -23 -36 -50 -67 -50 -41 0 -66 37 -60 90 9 81 75 118 116 66z m-309 -4 c24 -24 25 -34 5 -53 -13 -13 -13 -16 0 -27 23 -19 18 -57 -9 -75 -38 -25 -110 -17 -114 13 -4 27 24 30 44 5 12 -16 15 -16 24 -3 15 23 7 45 -18 48 -27 4 -29 19 -2 27 11 3 20 13 20 21 0 8 0 16 0 19 0 3 -3 5 -7 5 -5 0 -8 -6 -8 -12 0 -7 -10 -14 -22 -16 -31 -5 -31 31 -1 52 31 22 64 20 88 -4z m180 10 c0 -5 -8 -10 -17 -10 -18 0 -53 -28 -53 -42 0 -4 10 -8 23 -8 48 0 64 -53 27 -90 -24 -24 -82 -27 -104 -4 -30 29 -18 92 27 142 21 23 97 33 97 12z m-340 -80 c0 -47 4 -80 10 -80 6 0 10 -7 10 -15 0 -12 -13 -15 -55 -15 -53 0 -72 11 -40 24 11 4 15 21 15 60 0 39 -4 55 -15 60 -23 8 -18 21 13 33 59 24 62 21 62 -67z m-305 45 c45 -44 28 -150 -26 -169 -89 -31 -150 95 -80 165 36 36 73 37 106 4z m179 3 c47 -66 -15 -167 -101 -168 -41 0 -43 15 -4 23 40 8 63 47 28 47 -55 0 -79 59 -42 100 26 29 99 28 119 -2z m-587 -200 c26 -77 24 -80 -32 -40 -25 18 -49 32 -53 32 -9 0 -45 41 -40 45 8 7 65 24 84 24 16 1 24 -11 41 -61z"/> <path d="M3600 3385 c0 -3 2 -5 5 -5 3 0 5 2 5 5 0 3 -2 5 -5 5 -3 0 -5 -2 -5 -5z"/> <path d="M3580 3355 c0 -3 2 -5 5 -5 3 0 5 2 5 5 0 3 -2 5 -5 5 -3 0 -5 -2 -5 -5z"/> <path d="M3290 3175 c0 -3 2 -5 5 -5 3 0 5 2 5 5 0 3 -2 5 -5 5 -3 0 -5 -2 -5 -5z"/> <path d="M3197 3016 c-4 -10 -1 -13 8 -9 8 3 12 9 9 14 -7 12 -11 11 -17 -5z"/> <path d="M3100 2990 c0 -7 3 -10 7 -7 3 4 3 10 0 14 -4 3 -7 0 -7 -7z"/> <path d="M2970 3115 c0 -3 2 -5 5 -5 3 0 5 2 5 5 0 3 -2 5 -5 5 -3 0 -5 -2 -5 -5z"/> <path d="M2991 3094 c0 -11 3 -14 6 -6 3 7 2 16 -1 19 -3 4 -6 -2 -5 -13z"/> <path d="M3001 3054 c0 -11 3 -14 6 -6 3 7 2 16 -1 19 -3 4 -6 -2 -5 -13z"/> <path d="M3776 2651 c-16 -25 -20 -114 -5 -109 8 3 16 24 19 51 6 49 -2 79 -14 58z"/> <path d="M3907 2663 c-14 -22 -21 -113 -9 -113 7 0 14 11 18 23 8 33 1 105 -9 90z"/> <path d="M3436 2634 c-9 -24 -7 -114 3 -114 11 0 21 36 21 82 0 39 -14 58 -24 32z"/> <path d="M3577 2643 c-21 -37 -13 -132 9 -110 11 11 17 117 6 117 -6 0 -13 -3 -15 -7z"/> <path d="M3223 2624 c-12 -31 -9 -107 4 -111 16 -6 30 104 15 119 -8 8 -13 6 -19 -8z"/> <path d="M3070 2535 c0 -19 4 -35 9 -35 11 0 24 48 16 60 -13 21 -25 8 -25 -25z"/> <path d="M2434 2565 c-7 -53 2 -98 19 -92 19 6 22 137 3 137 -10 0 -17 -15 -22 -45z"/> <path d="M2606 2596 c-11 -45 16 -78 29 -36 7 22 -2 60 -15 60 -4 0 -11 -11 -14 -24z"/> <path d="M2760 5045 c0 -3 2 -5 5 -5 3 0 5 2 5 5 0 3 -2 5 -5 5 -3 0 -5 -2 -5 -5z"/> <path d="M2750 5005 c0 -3 2 -5 5 -5 3 0 5 2 5 5 0 3 -2 5 -5 5 -3 0 -5 -2 -5 -5z"/> <path d="M2740 4985 c0 -3 2 -5 5 -5 3 0 5 2 5 5 0 3 -2 5 -5 5 -3 0 -5 -2 -5 -5z"/> <path d="M2404 4926 c-38 -38 -43 -70 -19 -115 18 -36 32 -41 106 -41 58 0 60 1 73 33 22 53 27 107 10 100 -8 -3 -14 0 -14 6 0 17 -62 51 -93 51 -20 0 -40 -11 -63 -34z"/> <path d="M2590 4925 c0 -3 2 -5 5 -5 3 0 5 2 5 5 0 3 -2 5 -5 5 -3 0 -5 -2 -5 -5z"/> <path d="M3440 4742 c0 -64 -4 -112 -11 -119 -22 -22 -6 -58 27 -61 45 -4 72 28 50 60 -9 12 -16 41 -16 63 0 37 -36 165 -46 165 -2 0 -4 -49 -4 -108z"/> <path d="M3793 4833 c4 -3 10 -3 14 0 3 4 0 7 -7 7 -7 0 -10 -3 -7 -7z"/> <path d="M2780 4765 c0 -3 2 -5 5 -5 3 0 5 2 5 5 0 3 -2 5 -5 5 -3 0 -5 -2 -5 -5z"/> <path d="M3960 4635 c0 -3 2 -5 5 -5 3 0 5 2 5 5 0 3 -2 5 -5 5 -3 0 -5 -2 -5 -5z"/> <path d="M3410 4555 c0 -3 2 -5 5 -5 3 0 5 2 5 5 0 3 -2 5 -5 5 -3 0 -5 -2 -5 -5z"/> <path d="M3320 4485 c0 -3 2 -5 5 -5 3 0 5 2 5 5 0 3 -2 5 -5 5 -3 0 -5 -2 -5 -5z"/> <path d="M3200 4420 c0 -5 4 -10 9 -10 6 0 13 5 16 10 3 6 -1 10 -9 10 -9 0 -16 -4 -16 -10z"/> <path d="M3160 4405 c0 -3 2 -5 5 -5 3 0 5 2 5 5 0 3 -2 5 -5 5 -3 0 -5 -2 -5 -5z"/> <path d="M2947 4355 c-4 -8 -2 -17 3 -20 6 -4 10 3 10 14 0 25 -6 27 -13 6z"/> <path d="M2987 4364 c-15 -16 -7 -35 11 -26 9 5 37 10 62 11 59 3 65 11 7 11 -25 0 -52 2 -59 5 -8 3 -17 2 -21 -1z"/> <path d="M2900 4355 c0 -3 2 -5 5 -5 3 0 5 2 5 5 0 3 -2 5 -5 5 -3 0 -5 -2 -5 -5z"/> <path d="M2830 4335 c0 -3 2 -5 5 -5 3 0 5 2 5 5 0 3 -2 5 -5 5 -3 0 -5 -2 -5 -5z"/> <path d="M2736 4313 c-11 -11 -6 -23 9 -23 8 0 15 4 15 9 0 13 -16 22 -24 14z"/> <path d="M2840 4310 c0 -5 5 -10 11 -10 5 0 7 5 4 10 -3 6 -8 10 -11 10 -2 0 -4 -4 -4 -10z"/> <path d="M2910 4315 c0 -3 2 -5 5 -5 3 0 5 2 5 5 0 3 -2 5 -5 5 -3 0 -5 -2 -5 -5z"/> <path d="M3261 4228 c-1 -12 6 -18 20 -18 11 0 17 5 14 10 -4 6 -10 8 -15 5 -4 -3 -11 1 -13 7 -3 8 -6 6 -6 -4z"/> <path d="M2321 4208 c-20 -52 8 -145 43 -145 8 0 13 3 11 7 -2 4 6 16 18 28 47 44 50 52 22 52 -14 0 -25 4 -25 9 0 11 29 23 40 16 5 -3 11 -1 15 5 3 5 23 10 43 10 l36 0 -39 20 c-58 30 -153 28 -164 -2z m39 -133 c0 -3 -2 -5 -5 -5 -3 0 -5 2 -5 5 0 3 2 5 5 5 3 0 5 -2 5 -5z"/> <path d="M2655 4220 c3 -5 8 -10 11 -10 3 0 2 5 -1 10 -3 6 -8 10 -11 10 -3 0 -2 -4 1 -10z"/> <path d="M2860 4225 c0 -3 2 -5 5 -5 3 0 5 2 5 5 0 3 -2 5 -5 5 -3 0 -5 -2 -5 -5z"/> <path d="M3373 4223 c4 -3 10 -3 14 0 3 4 0 7 -7 7 -7 0 -10 -3 -7 -7z"/> <path d="M3420 4225 c0 -3 2 -5 5 -5 3 0 5 2 5 5 0 3 -2 5 -5 5 -3 0 -5 -2 -5 -5z"/> <path d="M2293 4213 c4 -3 10 -3 14 0 3 4 0 7 -7 7 -7 0 -10 -3 -7 -7z"/> <path d="M2680 4215 c0 -3 2 -5 5 -5 3 0 5 2 5 5 0 3 -2 5 -5 5 -3 0 -5 -2 -5 -5z"/> <path d="M2823 4213 c4 -3 10 -3 14 0 3 4 0 7 -7 7 -7 0 -10 -3 -7 -7z"/> <path d="M2254 4198 c-4 -7 -3 -8 4 -4 7 4 12 9 12 12 0 8 -9 4 -16 -8z"/> <path d="M3360 4205 c0 -3 2 -5 5 -5 3 0 5 2 5 5 0 3 -2 5 -5 5 -3 0 -5 -2 -5 -5z"/> <path d="M2835 4179 c-4 -6 -14 -8 -23 -4 -8 3 -25 -4 -39 -17 -25 -24 -111 -30 -136 -10 -6 6 -27 12 -46 14 -34 3 -39 -3 -43 -49 -1 -7 -13 -13 -28 -13 -33 0 -71 -37 -51 -50 11 -6 9 -10 -6 -19 -11 -5 -23 -7 -27 -4 -3 3 -6 0 -6 -9 0 -10 -10 -15 -30 -15 -17 0 -30 6 -30 13 0 6 -7 14 -15 18 -8 3 -15 4 -15 2 0 -9 27 -64 44 -91 11 -16 34 -53 53 -82 18 -28 33 -55 33 -60 0 -5 15 -33 34 -63 19 -30 32 -58 30 -62 -3 -4 -55 -5 -117 -2 -145 8 -161 -1 -120 -64 15 -23 29 -38 31 -32 2 6 -4 18 -14 26 -17 13 -16 13 11 1 31 -15 55 -12 67 7 5 8 8 7 8 -1 0 -7 6 -10 13 -7 9 3 31 -18 57 -52 23 -31 45 -52 49 -48 13 18 51 35 45 20 -13 -34 26 -21 60 20 36 43 61 58 50 30 -4 -10 0 -14 12 -12 10 2 20 9 23 17 3 8 15 15 26 17 12 2 16 0 9 -5 -17 -13 -25 -43 -9 -37 7 3 16 12 19 20 3 8 14 14 25 14 19 0 61 54 61 79 0 6 -11 11 -25 11 -14 0 -25 5 -25 10 0 6 -5 10 -11 10 -5 0 -7 -4 -4 -10 4 -6 -32 -10 -99 -10 -109 0 -116 3 -91 36 20 26 19 36 -3 30 -34 -11 -58 28 -33 53 12 12 21 26 21 32 0 5 5 7 11 4 6 -4 8 -13 5 -21 -6 -16 -2 -17 32 -8 28 8 105 135 96 159 -5 12 -9 13 -14 5 -6 -9 -13 -9 -26 -1 -11 6 -13 11 -6 11 6 0 12 7 12 15 0 8 5 15 11 15 5 0 8 4 4 10 -3 5 -12 7 -20 4 -8 -4 -12 -10 -9 -15 13 -22 -19 -6 -43 22 -29 32 -37 68 -18 81 17 12 25 9 18 -8 -5 -14 -2 -14 32 0 21 9 40 14 43 12 8 -9 -10 -27 -35 -37 -39 -15 -21 -21 37 -13 34 4 47 10 38 15 -9 6 -6 9 10 9 13 0 21 -4 18 -9 -3 -4 6 -6 19 -3 14 2 25 9 25 14 0 5 5 6 12 2 7 -5 9 -2 6 8 -4 8 2 28 13 44 10 16 19 32 19 37 0 11 -18 9 -25 -4z m-335 -103 c0 -3 -4 -8 -10 -11 -5 -3 -10 -1 -10 4 0 6 5 11 10 11 6 0 10 -2 10 -4z m80 -6 c0 -5 -10 -10 -22 -10 -19 0 -20 2 -8 10 19 13 30 13 30 0z m25 -110 c-3 -6 -1 -10 6 -10 9 0 8 -4 -1 -15 -6 -8 -15 -14 -18 -13 -4 1 -20 -1 -37 -5 -68 -16 -81 -17 -64 -4 20 15 21 50 2 43 -8 -3 -11 -1 -8 4 3 5 29 8 58 7 47 -2 52 0 49 18 -2 18 -2 19 8 2 6 -9 8 -22 5 -27z m40 10 c-3 -5 -12 -10 -18 -10 -7 0 -6 4 3 10 19 12 23 12 15 0z m-82 -116 c-3 -8 -12 -13 -20 -10 -8 3 -17 6 -19 6 -3 0 -2 5 1 10 11 17 45 12 38 -6z m237 -249 c0 -3 -2 -5 -5 -5 -3 0 -5 2 -5 5 0 3 2 5 5 5 3 0 5 -2 5 -5z"/> <path d="M2290 4175 c0 -3 2 -5 5 -5 3 0 5 2 5 5 0 3 -2 5 -5 5 -3 0 -5 -2 -5 -5z"/> <path d="M2687 4166 c-3 -8 -3 -17 0 -20 9 -9 44 14 38 25 -9 14 -32 11 -38 -5z"/> <path d="M2870 4175 c0 -3 2 -5 5 -5 3 0 5 2 5 5 0 3 -2 5 -5 5 -3 0 -5 -2 -5 -5z"/> <path d="M3243 4165 c-7 -8 -13 -17 -13 -20 0 -10 59 -5 66 7 5 8 2 9 -9 5 -11 -4 -17 -1 -17 8 0 19 -11 19 -27 0z"/> <path d="M2750 4165 c0 -3 2 -5 5 -5 3 0 5 2 5 5 0 3 -2 5 -5 5 -3 0 -5 -2 -5 -5z"/> <path d="M3138 4163 c7 -3 16 -2 19 1 4 3 -2 6 -13 5 -11 0 -14 -3 -6 -6z"/> <path d="M3203 4163 c4 -3 10 -3 14 0 3 4 0 7 -7 7 -7 0 -10 -3 -7 -7z"/> <path d="M2865 4150 c3 -5 8 -10 11 -10 3 0 2 5 -1 10 -3 6 -8 10 -11 10 -3 0 -2 -4 1 -10z"/> <path d="M3090 4140 c0 -5 7 -10 16 -10 8 0 12 5 9 10 -3 6 -10 10 -16 10 -5 0 -9 -4 -9 -10z"/> <path d="M2976 4112 c-2 -4 13 -8 35 -9 21 -1 39 3 39 8 0 11 -67 12 -74 1z"/> <path d="M3083 4113 c4 -3 10 -3 14 0 3 4 0 7 -7 7 -7 0 -10 -3 -7 -7z"/> <path d="M2840 4105 c0 -3 2 -5 5 -5 3 0 5 2 5 5 0 3 -2 5 -5 5 -3 0 -5 -2 -5 -5z"/> <path d="M3043 4083 c4 -3 10 -3 14 0 3 4 0 7 -7 7 -7 0 -10 -3 -7 -7z"/> <path d="M2433 4073 c4 -3 10 -3 14 0 3 4 0 7 -7 7 -7 0 -10 -3 -7 -7z"/> <path d="M2786 4053 c-6 -14 -5 -15 5 -6 7 7 10 15 7 18 -3 3 -9 -2 -12 -12z"/> <path d="M2390 4035 c0 -3 2 -5 5 -5 3 0 5 2 5 5 0 3 -2 5 -5 5 -3 0 -5 -2 -5 -5z"/> <path d="M2770 4015 c0 -3 2 -5 5 -5 3 0 5 2 5 5 0 3 -2 5 -5 5 -3 0 -5 -2 -5 -5z"/> <path d="M2861 4001 c-8 -5 -9 -11 -3 -15 17 -10 7 -37 -42 -118 -25 -41 -46 -80 -46 -86 0 -6 -4 -12 -9 -14 -4 -1 -12 -14 -16 -27 -6 -20 -4 -23 9 -18 9 4 16 1 16 -6 1 -7 6 -5 14 5 11 16 15 16 34 2 20 -14 22 -14 22 0 0 9 4 16 8 16 13 0 33 50 26 62 -4 6 -2 8 4 4 15 -9 42 22 36 42 -5 13 -4 14 4 3 7 -9 12 -10 16 -2 4 6 12 9 17 6 5 -4 9 -2 9 4 0 5 -12 11 -27 13 -27 3 -28 5 -25 51 2 37 0 47 -12 47 -14 0 -20 12 -17 33 1 9 -1 9 -18 -2z m10 -84 c-10 -9 -11 -8 -5 6 3 10 9 15 12 12 3 -3 0 -11 -7 -18z m9 -32 c0 -3 -2 -5 -5 -5 -3 0 -5 2 -5 5 0 3 2 5 5 5 3 0 5 -2 5 -5z m-25 -93 c-6 -4 -16 -18 -22 -32 l-12 -25 0 28 c-1 15 4 27 9 27 6 0 10 8 10 17 0 14 3 14 12 5 9 -9 9 -15 3 -20z m-68 -19 c-4 -3 -7 0 -7 7 0 7 3 10 7 7 3 -4 3 -10 0 -14z"/> <path d="M2756 3985 c-3 -9 0 -15 9 -15 9 0 12 6 9 15 -4 8 -7 15 -9 15 -2 0 -5 -7 -9 -15z"/> <path d="M2920 3995 c0 -3 2 -5 5 -5 3 0 5 2 5 5 0 3 -2 5 -5 5 -3 0 -5 -2 -5 -5z"/> <path d="M3180 3995 c0 -3 2 -5 5 -5 3 0 5 2 5 5 0 3 -2 5 -5 5 -3 0 -5 -2 -5 -5z"/> <path d="M3200 3995 c0 -3 2 -5 5 -5 3 0 5 2 5 5 0 3 -2 5 -5 5 -3 0 -5 -2 -5 -5z"/> <path d="M2794 3979 c-8 -14 23 -22 42 -11 14 8 13 10 -10 14 -15 3 -29 1 -32 -3z"/> <path d="M3253 3953 c4 -3 10 -3 14 0 3 4 0 7 -7 7 -7 0 -10 -3 -7 -7z"/> <path d="M3120 3945 c0 -3 2 -5 5 -5 3 0 5 2 5 5 0 3 -2 5 -5 5 -3 0 -5 -2 -5 -5z"/> <path d="M2948 3913 c-39 -10 -28 -33 15 -29 23 2 49 5 57 5 12 1 11 5 -4 16 -20 15 -36 17 -68 8z"/> <path d="M3043 3893 c4 -3 10 -3 14 0 3 4 0 7 -7 7 -7 0 -10 -3 -7 -7z"/> <path d="M2590 3775 c0 -3 2 -5 5 -5 3 0 5 2 5 5 0 3 -2 5 -5 5 -3 0 -5 -2 -5 -5z"/> <path d="M2880 3759 c0 -10 5 -19 10 -19 6 0 10 5 10 11 0 5 5 7 10 4 6 -3 10 -2 10 3 0 5 -9 12 -20 15 -15 4 -20 0 -20 -14z"/> <path d="M2330 3765 c0 -3 2 -5 5 -5 3 0 5 2 5 5 0 3 -2 5 -5 5 -3 0 -5 -2 -5 -5z"/> <path d="M2340 3740 c0 -7 3 -10 7 -7 3 4 3 10 0 14 -4 3 -7 0 -7 -7z"/> <path d="M2360 3570 c0 -7 3 -10 7 -7 3 4 3 10 0 14 -4 3 -7 0 -7 -7z"/> <path d="M2760 3550 c0 -7 3 -10 7 -7 3 4 3 10 0 14 -4 3 -7 0 -7 -7z"/> <path d="M3430 3555 c0 -3 2 -5 5 -5 3 0 5 2 5 5 0 3 -2 5 -5 5 -3 0 -5 -2 -5 -5z"/> <path d="M3403 3543 c4 -3 10 -3 14 0 3 4 0 7 -7 7 -7 0 -10 -3 -7 -7z"/> <path d="M2350 3525 c0 -3 2 -5 5 -5 3 0 5 2 5 5 0 3 -2 5 -5 5 -3 0 -5 -2 -5 -5z"/> <path d="M2288 3410 l-37 -5 68 -115 c38 -63 87 -146 110 -185 23 -38 46 -77 51 -85 5 -8 24 -41 41 -73 29 -54 32 -57 45 -39 25 37 63 116 58 124 -9 14 -23 8 -29 -12 -4 -13 -15 -20 -31 -20 -13 0 -24 -5 -24 -10 0 -6 -14 3 -31 21 -22 22 -28 34 -20 42 17 17 13 35 -15 72 -23 30 -24 34 -7 38 17 4 17 5 1 6 -19 1 -26 21 -8 21 17 0 11 36 -10 63 -11 14 -20 30 -20 35 0 6 -6 12 -12 14 -9 3 -8 9 4 22 17 16 19 15 35 -21 10 -21 22 -42 26 -48 4 -5 21 -29 38 -52 39 -55 41 -55 82 20 29 53 38 62 62 62 19 1 30 7 36 22 4 11 12 24 18 28 17 10 13 -32 -5 -49 -12 -12 -12 -16 -2 -16 7 -1 2 -7 -12 -15 -19 -11 -21 -14 -7 -15 9 0 17 -4 17 -9 0 -5 -7 -8 -16 -7 -10 0 -21 -11 -27 -29 -5 -16 -16 -34 -23 -38 -18 -11 -18 -33 1 -41 11 -4 13 -11 5 -31 -15 -39 -3 -29 21 17 12 23 30 54 41 69 11 15 20 43 21 62 1 29 4 34 15 25 7 -6 12 -7 11 -2 -4 20 2 35 11 29 6 -4 7 6 4 25 -6 29 10 44 18 18 3 -7 16 8 31 32 l27 45 -28 8 c-28 8 -469 6 -534 -3z m465 -116 c-5 -10 -14 -20 -21 -22 -9 -2 -7 5 5 22 21 28 27 28 16 0z m-83 -159 c0 -3 -2 -5 -5 -5 -3 0 -5 2 -5 5 0 3 2 5 5 5 3 0 5 -2 5 -5z"/> <path d="M2660 3275 c0 -3 2 -5 5 -5 3 0 5 2 5 5 0 3 -2 5 -5 5 -3 0 -5 -2 -5 -5z"/> <path d="M2640 3245 c0 -3 2 -5 5 -5 3 0 5 2 5 5 0 3 -2 5 -5 5 -3 0 -5 -2 -5 -5z"/> <path d="M2480 3225 c0 -3 2 -5 5 -5 3 0 5 2 5 5 0 3 -2 5 -5 5 -3 0 -5 -2 -5 -5z"/> <path d="M2590 3166 c0 -2 7 -7 16 -10 8 -3 12 -2 9 4 -6 10 -25 14 -25 6z"/> <path d="M2621 3092 c-7 -13 -11 -26 -8 -28 8 -8 29 25 25 38 -3 8 -9 4 -17 -10z"/> <path d="M2280 3055 c0 -3 2 -5 5 -5 3 0 5 2 5 5 0 3 -2 5 -5 5 -3 0 -5 -2 -5 -5z"/> <path d="M2630 3045 c0 -3 2 -5 5 -5 3 0 5 2 5 5 0 3 -2 5 -5 5 -3 0 -5 -2 -5 -5z"/> <path d="M2510 3035 c0 -3 2 -5 5 -5 3 0 5 2 5 5 0 3 -2 5 -5 5 -3 0 -5 -2 -5 -5z"/> <path d="M2530 3035 c0 -3 2 -5 5 -5 3 0 5 2 5 5 0 3 -2 5 -5 5 -3 0 -5 -2 -5 -5z"/> <path d="M2500 2935 c0 -3 2 -5 5 -5 3 0 5 2 5 5 0 3 -2 5 -5 5 -3 0 -5 -2 -5 -5z"/> <path d="M2570 2885 c0 -3 2 -5 5 -5 3 0 5 2 5 5 0 3 -2 5 -5 5 -3 0 -5 -2 -5 -5z"/> <path d="M2600 2885 c0 -3 2 -5 5 -5 3 0 5 2 5 5 0 3 -2 5 -5 5 -3 0 -5 -2 -5 -5z"/> <path d="M2450 2875 c0 -3 2 -5 5 -5 3 0 5 2 5 5 0 3 -2 5 -5 5 -3 0 -5 -2 -5 -5z"/> <path d="M2480 2875 c0 -3 2 -5 5 -5 3 0 5 2 5 5 0 3 -2 5 -5 5 -3 0 -5 -2 -5 -5z"/> <path d="M2390 2865 c0 -3 2 -5 5 -5 3 0 5 2 5 5 0 3 -2 5 -5 5 -3 0 -5 -2 -5 -5z"/> <path d="M2783 2803 c4 -3 10 -3 14 0 3 4 0 7 -7 7 -7 0 -10 -3 -7 -7z"/> <path d="M2940 2770 c0 -5 5 -10 10 -10 6 0 10 5 10 10 0 6 -4 10 -10 10 -5 0 -10 -4 -10 -10z"/> <path d="M3050 2725 c0 -3 2 -5 5 -5 3 0 5 2 5 5 0 3 -2 5 -5 5 -3 0 -5 -2 -5 -5z"/> <path d="M2220 2715 c0 -3 2 -5 5 -5 3 0 5 2 5 5 0 3 -2 5 -5 5 -3 0 -5 -2 -5 -5z"/> <path d="M1501 2477 c-94 -32 -443 -553 -652 -971 -115 -230 -105 -216 -175 -256 -59 -33 -74 -79 -38 -114 25 -26 384 -23 407 2 28 31 21 65 -24 111 -49 50 -49 53 18 194 l46 97 233 0 232 0 6 -47 c21 -179 20 -209 -9 -229 -60 -42 -77 -64 -70 -92 12 -51 18 -52 322 -52 308 0 323 3 323 60 0 17 6 14 39 -19 43 -43 100 -59 163 -46 44 9 114 50 123 72 6 16 8 15 21 -9 45 -85 211 -88 295 -4 l26 26 13 -25 c39 -73 219 -83 301 -16 24 19 24 19 49 -3 65 -60 197 -61 267 -2 l28 24 28 -24 c87 -75 277 -46 309 46 4 11 12 6 34 -19 114 -135 374 -59 374 109 0 195 -329 216 -394 25 -10 -29 -15 -33 -24 -22 -9 11 -8 18 8 32 58 53 -20 125 -135 125 -110 -1 -195 -94 -155 -170 17 -31 -14 -31 -32 1 -14 24 -14 30 -2 40 8 6 14 27 14 45 0 90 -200 112 -281 31 -28 -28 -31 -35 -27 -83 5 -57 -14 -81 -53 -69 -11 4 -38 -3 -65 -15 -31 -16 -53 -20 -72 -15 -24 7 -21 9 33 24 128 36 176 99 125 163 -54 70 -214 58 -300 -22 l-29 -27 -12 30 c-34 82 -187 89 -276 12 l-40 -34 -12 25 c-16 37 -92 67 -151 62 -102 -10 -177 -77 -189 -170 l-7 -53 -35 35 c-35 34 -36 38 -79 260 -98 516 -181 820 -245 904 -37 48 -77 65 -160 65 -33 0 -75 -5 -94 -12z m-32 -417 c18 -75 38 -188 54 -302 l6 -37 -176 -3 c-96 -2 -176 -1 -178 2 -2 4 200 356 241 418 21 32 28 22 53 -78z m268 -376 c-3 -3 -12 -4 -19 -1 -8 3 -5 6 6 6 11 1 17 -2 13 -5z m671 -284 c52 -32 41 -80 -19 -80 -13 0 -24 10 -31 31 -15 44 -47 36 -75 -21 -54 -105 2 -176 94 -119 40 25 67 13 42 -17 -57 -69 -215 -70 -263 -2 -85 121 119 289 252 208z m341 -4 c36 -33 21 -76 -27 -76 -17 0 -26 8 -34 31 -21 59 -84 13 -95 -70 -12 -85 32 -113 111 -70 44 23 70 13 45 -17 -39 -47 -160 -69 -218 -40 -98 51 -74 191 43 251 43 22 147 16 175 -9z m350 0 c29 -27 27 -70 -5 -95 -26 -21 -117 -51 -153 -51 -25 0 -27 -17 -4 -42 21 -24 74 -23 122 2 21 10 41 16 45 13 29 -29 -70 -83 -151 -83 -180 0 -213 177 -49 260 53 27 163 25 195 -4z m316 12 c26 -12 42 -48 30 -67 -11 -19 -44 -12 -61 15 -21 31 -79 32 -79 0 0 -14 16 -24 60 -40 72 -25 95 -58 73 -103 -45 -93 -283 -100 -283 -8 0 45 47 49 65 6 14 -35 67 -44 90 -16 18 22 -1 40 -61 60 -83 28 -92 94 -20 142 39 26 140 32 186 11z m325 -3 c33 -17 41 -33 28 -57 -13 -27 -40 -22 -70 12 -22 25 -30 28 -50 21 -34 -13 -28 -34 17 -54 100 -45 112 -57 101 -100 -23 -93 -264 -122 -291 -36 -16 50 46 66 70 18 14 -26 21 -30 53 -27 59 5 57 41 -3 64 -90 34 -114 72 -79 123 34 48 161 69 224 36z m360 -3 c101 -53 87 -186 -25 -238 -159 -74 -315 30 -246 164 43 82 183 120 271 74z m-2310 -47 c0 -3 -2 -5 -5 -5 -3 0 -5 2 -5 5 0 3 2 5 5 5 3 0 5 -2 5 -5z m1557 -2 c-4 -3 -10 -3 -14 0 -3 4 0 7 7 7 7 0 10 -3 7 -7z m320 0 c-4 -3 -10 -3 -14 0 -3 4 0 7 7 7 7 0 10 -3 7 -7z m-1287 -55 c8 -3 27 -1 43 3 22 6 27 4 27 -9 0 -25 -16 -45 -31 -40 -8 3 -33 -6 -57 -18 -64 -34 -91 -12 -72 57 16 55 30 64 54 36 12 -14 28 -27 36 -29z m290 31 c15 -26 48 -38 82 -28 30 8 31 7 22 -29 -4 -13 -12 -21 -19 -18 -7 2 -33 -6 -58 -20 -75 -39 -102 -2 -66 89 14 32 24 34 39 6z m606 -114 c18 -15 18 -15 -5 -13 -14 2 -26 9 -29 16 -5 17 10 15 34 -3z m325 5 c5 0 9 -4 9 -10 0 -16 -37 -11 -44 6 -5 12 -2 15 10 10 8 -3 20 -6 25 -6z"/> <path d="M2955 1364 c-18 -19 -38 -64 -31 -71 9 -10 65 9 81 27 36 40 -11 82 -50 44z m39 -18 c-6 -16 -34 -30 -34 -18 0 10 22 32 32 32 4 0 5 -6 2 -14z"/> <path d="M3978 1370 c-34 -20 -54 -144 -28 -175 33 -40 72 -6 90 77 18 81 -11 127 -62 98z m40 -76 c-5 -56 -26 -92 -47 -80 -28 17 3 136 35 136 14 0 16 -8 12 -56z"/> <path d="M2815 2013 c-83 -19 -95 -24 -95 -43 0 -11 5 -20 10 -20 11 0 13 -52 4 -87 -6 -21 -7 -22 -36 -7 -107 56 -254 -133 -178 -229 45 -57 130 -54 178 8 l22 28 0 -30 c0 -53 24 -58 113 -22 33 14 34 25 5 49 l-22 17 28 156 c34 185 33 194 -29 180z m-109 -205 c19 -31 -5 -142 -35 -157 -36 -20 -54 17 -40 80 17 73 54 112 75 77z"/> <path d="M4480 2006 c-84 -23 -97 -35 -78 -66 10 -16 8 -49 -14 -177 -33 -193 -33 -193 69 -162 76 23 95 42 63 59 -27 14 -26 50 5 210 24 120 25 151 7 149 -4 0 -27 -6 -52 -13z"/> <path d="M2196 2001 c-33 -7 -59 -41 -38 -48 18 -7 15 -39 -15 -205 -31 -170 -28 -186 32 -154 31 17 38 18 62 5 119 -64 274 86 216 208 -28 60 -107 77 -155 35 -23 -19 -23 -4 -4 88 8 36 12 68 9 73 -5 8 -65 8 -107 -2z m132 -203 c39 -39 -15 -180 -62 -162 -29 11 -15 116 20 155 20 22 26 23 42 7z"/> <path d="M3325 1994 c-54 -20 -62 -30 -42 -51 15 -17 14 -31 -11 -181 -22 -136 -24 -164 -13 -172 16 -9 103 14 141 37 l24 16 -22 15 c-28 18 -28 37 3 192 32 163 32 160 -7 159 -18 0 -51 -7 -73 -15z"/> <path d="M4058 1994 c-55 -17 -68 -32 -43 -50 17 -13 17 -19 -5 -146 -42 -238 -43 -233 68 -194 68 23 91 49 52 59 -26 7 -26 23 5 182 35 185 36 184 -77 149z"/> <path d="M3531 1989 c-26 -10 -50 -37 -51 -56 -1 -41 92 -60 123 -25 48 52 -3 109 -72 81z"/> <path d="M4255 1988 c-66 -36 -53 -98 21 -98 63 0 97 63 52 94 -26 19 -45 20 -73 4z"/> <path d="M2942 1851 c-68 -23 -83 -38 -59 -55 19 -15 21 -50 8 -110 -24 -100 88 -141 156 -58 l23 27 0 -26 c0 -44 18 -50 85 -27 78 26 86 34 56 58 -25 18 -24 56 6 178 5 21 2 22 -55 22 l-60 0 -12 -62 c-16 -86 -39 -132 -69 -136 -20 -3 -23 0 -18 20 17 68 29 158 24 172 -8 20 -19 20 -85 -3z"/> <path d="M3770 1859 c-139 -42 -186 -198 -77 -256 64 -34 186 -14 233 38 28 32 0 42 -47 18 -52 -26 -94 -25 -114 3 -14 22 -14 23 7 29 142 39 183 65 176 112 -7 47 -104 78 -178 56z m68 -66 c3 -23 -22 -45 -66 -58 -22 -6 -23 -5 -17 17 18 58 77 87 83 41z"/> <path d="M3506 1840 c-64 -25 -76 -37 -53 -54 22 -17 21 -32 -3 -157 -23 -118 -24 -120 -50 -91 -25 26 -33 27 -54 6 -38 -37 -6 -69 68 -68 109 2 132 33 166 227 29 170 26 176 -74 137z"/> <path d="M4235 1844 c-58 -21 -74 -40 -50 -58 18 -13 18 -16 1 -96 -23 -107 -16 -118 64 -94 71 20 93 40 66 59 -18 13 -18 17 -2 101 21 113 13 122 -79 88z"/> <path d="M4593 1579 c-63 -18 -84 -91 -37 -128 l26 -20 -34 -14 c-31 -13 -34 -12 -55 10 -25 26 -60 30 -89 9 -17 -13 -21 -12 -37 2 -16 14 -24 14 -65 3 -95 -25 -140 -76 -97 -107 16 -12 16 -18 2 -98 -21 -114 -20 -116 63 -116 79 0 84 4 100 85 18 95 19 96 40 85 27 -15 35 -13 71 17 l32 28 -7 -45 c-27 -175 -20 -191 64 -172 80 19 120 39 120 60 0 17 5 15 33 -13 62 -62 175 -70 264 -20 45 24 46 25 72 6 140 -98 392 13 306 136 -13 18 -12 22 4 37 26 24 19 65 -15 93 -73 58 -228 36 -273 -38 l-18 -30 -6 28 c-9 44 -58 68 -142 68 -131 -1 -225 -81 -225 -193 0 -27 -3 -33 -11 -25 -9 9 -8 32 2 93 11 68 11 85 0 103 -10 15 -11 22 -2 25 6 2 18 17 26 32 34 65 -31 122 -112 99z m82 -39 c15 -17 16 -24 7 -45 -22 -47 -100 -56 -123 -14 -29 55 73 107 116 59z m-314 -160 c4 -19 7 -29 8 -22 5 51 93 81 112 38 23 -50 -43 -116 -69 -69 -18 31 -39 6 -56 -69 -28 -118 -28 -118 -86 -118 -35 0 -50 4 -50 13 0 13 16 113 25 154 3 14 -2 29 -15 41 -24 22 -17 31 41 57 55 24 83 16 90 -25z m303 25 c3 -8 -2 -53 -11 -101 -14 -80 -14 -86 2 -98 26 -18 12 -33 -47 -51 -98 -29 -102 -24 -81 95 13 79 13 85 -3 97 -24 17 -6 35 56 57 57 19 76 20 84 1z m336 0 c91 -47 27 -121 -132 -153 -36 -7 -37 -8 -25 -32 17 -34 74 -39 129 -10 45 24 72 14 47 -16 -56 -67 -224 -72 -280 -8 -103 117 112 296 261 219z m319 2 c37 -19 49 -43 29 -63 -19 -19 -54 -11 -61 15 -6 23 -41 32 -63 16 -26 -19 -11 -41 42 -59 84 -29 108 -76 63 -125 -72 -77 -276 -64 -267 17 5 41 43 43 66 3 21 -37 74 -44 91 -12 13 23 1 35 -59 56 -59 21 -70 32 -70 69 0 74 145 127 229 83z m-62 -54 c-4 -3 -10 -3 -14 0 -3 4 0 7 7 7 7 0 10 -3 7 -7z m-193 -97 c-11 -6 -32 -11 -49 -12 -16 -1 -51 -10 -77 -20 -35 -14 -50 -16 -58 -8 -9 9 3 15 42 24 58 13 128 53 128 73 1 6 8 -1 16 -17 15 -27 15 -30 -2 -40z m116 -36 c8 -5 11 -12 8 -16 -10 -9 -38 3 -38 16 0 12 10 13 30 0z"/> <path d="M4861 1351 c-39 -55 -21 -77 38 -46 31 16 43 37 35 60 -10 25 -51 18 -73 -14z m49 0 c0 -5 -7 -14 -15 -21 -16 -14 -18 -10 -9 14 6 17 24 22 24 7z"/> </g> </svg>